<svg width="637" height="570" viewBox="0 0 637 570" fill="none" xmlns="http://www.w3.org/2000/svg">
<rect width="637" height="570" fill="white"/>
<rect x="127" y="386" width="96" height="46" rx="8" fill="#E5F0FC" stroke="#142C47" stroke-width="4"/>
<rect x="260" y="386" width="96" height="46" rx="8" fill="#E5F0FC" stroke="#142C47" stroke-width="4"/>
<rect x="393" y="386" width="96" height="46" rx="8" fill="#E5F0FC" stroke="#142C47" stroke-width="4"/>
<rect x="137" y="394" width="96" height="46" rx="8" fill="#E5F0FC" stroke="#142C47" stroke-width="4"/>
<rect x="270" y="394" width="96" height="46" rx="8" fill="#E5F0FC" stroke="#142C47" stroke-width="4"/>
<rect x="403" y="394" width="96" height="46" rx="8" fill="#E5F0FC" stroke="#142C47" stroke-width="4"/>
<rect x="147" y="403" width="96" height="46" rx="8" fill="#E5F0FC" stroke="#142C47" stroke-width="4"/>
<rect x="280" y="403" width="96" height="46" rx="8" fill="#E5F0FC" stroke="#142C47" stroke-width="4"/>
<rect x="413" y="403" width="96" height="46" rx="8" fill="#E5F0FC" stroke="#142C47" stroke-width="4"/>
<rect x="184" y="266" width="268" height="57" rx="8" fill="#E9A7A6" stroke="#471414" stroke-width="4"/>
<rect x="241" y="166" width="158" height="57" rx="8" fill="#A6E9B9" stroke="#144726" stroke-width="4"/>
<rect x="269" y="66" width="102" height="57" rx="8" fill="#E9E2A6" stroke="#474214" stroke-width="4"/>
<path d="M171.148 434V422.364H173.256V432.233H178.381V434H171.148ZM180.119 434V425.273H182.176V434H180.119ZM181.153 424.034C180.828 424.034 180.547 423.926 180.312 423.71C180.078 423.491 179.96 423.227 179.96 422.92C179.96 422.61 180.078 422.347 180.312 422.131C180.547 421.911 180.828 421.801 181.153 421.801C181.483 421.801 181.763 421.911 181.994 422.131C182.229 422.347 182.347 422.61 182.347 422.92C182.347 423.227 182.229 423.491 181.994 423.71C181.763 423.926 181.483 424.034 181.153 424.034ZM186.348 428.886V434H184.291V425.273H186.257V426.756H186.359C186.56 426.267 186.88 425.879 187.32 425.591C187.763 425.303 188.31 425.159 188.962 425.159C189.564 425.159 190.089 425.288 190.536 425.545C190.986 425.803 191.335 426.176 191.581 426.665C191.831 427.153 191.954 427.746 191.95 428.443V434H189.893V428.761C189.893 428.178 189.742 427.722 189.439 427.392C189.14 427.062 188.725 426.898 188.195 426.898C187.835 426.898 187.515 426.977 187.234 427.136C186.958 427.292 186.74 427.517 186.581 427.812C186.426 428.108 186.348 428.466 186.348 428.886ZM197.905 434.17C197.03 434.17 196.274 433.989 195.638 433.625C195.005 433.258 194.518 432.739 194.178 432.068C193.837 431.394 193.666 430.6 193.666 429.688C193.666 428.79 193.837 428.002 194.178 427.324C194.522 426.642 195.003 426.112 195.621 425.733C196.238 425.35 196.964 425.159 197.797 425.159C198.335 425.159 198.842 425.246 199.32 425.42C199.801 425.591 200.225 425.856 200.592 426.216C200.964 426.576 201.255 427.034 201.467 427.591C201.679 428.144 201.786 428.803 201.786 429.568V430.199H194.632V428.812H199.814C199.81 428.419 199.725 428.068 199.558 427.761C199.392 427.451 199.159 427.206 198.859 427.028C198.564 426.85 198.219 426.761 197.825 426.761C197.405 426.761 197.036 426.864 196.717 427.068C196.399 427.269 196.151 427.534 195.973 427.864C195.799 428.189 195.71 428.547 195.706 428.938V430.148C195.706 430.655 195.799 431.091 195.984 431.455C196.17 431.814 196.429 432.091 196.763 432.284C197.096 432.473 197.486 432.568 197.933 432.568C198.232 432.568 198.503 432.527 198.746 432.443C198.988 432.356 199.198 432.229 199.376 432.062C199.554 431.896 199.689 431.689 199.78 431.443L201.7 431.659C201.579 432.167 201.348 432.61 201.007 432.989C200.67 433.364 200.238 433.655 199.712 433.864C199.185 434.068 198.583 434.17 197.905 434.17ZM206.037 434.176C205.484 434.176 204.986 434.078 204.543 433.881C204.103 433.68 203.755 433.384 203.497 432.994C203.243 432.604 203.116 432.123 203.116 431.551C203.116 431.059 203.207 430.652 203.389 430.33C203.571 430.008 203.819 429.75 204.134 429.557C204.448 429.364 204.802 429.218 205.196 429.119C205.594 429.017 206.005 428.943 206.429 428.898C206.94 428.845 207.355 428.797 207.673 428.756C207.991 428.71 208.223 428.642 208.366 428.551C208.514 428.456 208.588 428.311 208.588 428.114V428.08C208.588 427.652 208.461 427.32 208.207 427.085C207.954 426.85 207.588 426.733 207.111 426.733C206.607 426.733 206.207 426.843 205.912 427.062C205.62 427.282 205.423 427.542 205.321 427.841L203.401 427.568C203.552 427.038 203.802 426.595 204.151 426.239C204.499 425.879 204.925 425.61 205.429 425.432C205.933 425.25 206.49 425.159 207.099 425.159C207.52 425.159 207.938 425.208 208.355 425.307C208.772 425.405 209.152 425.568 209.497 425.795C209.842 426.019 210.118 426.324 210.327 426.71C210.539 427.097 210.645 427.58 210.645 428.159V434H208.668V432.801H208.599C208.474 433.044 208.298 433.271 208.071 433.483C207.848 433.691 207.565 433.86 207.224 433.989C206.887 434.114 206.491 434.176 206.037 434.176ZM206.571 432.665C206.984 432.665 207.342 432.583 207.645 432.42C207.948 432.254 208.181 432.034 208.344 431.761C208.51 431.489 208.594 431.191 208.594 430.869V429.841C208.529 429.894 208.42 429.943 208.264 429.989C208.113 430.034 207.942 430.074 207.753 430.108C207.563 430.142 207.376 430.172 207.19 430.199C207.005 430.225 206.844 430.248 206.707 430.267C206.401 430.309 206.126 430.377 205.884 430.472C205.641 430.566 205.45 430.699 205.31 430.869C205.17 431.036 205.099 431.252 205.099 431.517C205.099 431.896 205.238 432.182 205.514 432.375C205.791 432.568 206.143 432.665 206.571 432.665ZM212.713 434V425.273H214.707V426.727H214.798C214.957 426.223 215.23 425.835 215.616 425.562C216.007 425.286 216.452 425.148 216.952 425.148C217.065 425.148 217.192 425.153 217.332 425.165C217.476 425.172 217.596 425.186 217.69 425.205V427.097C217.603 427.066 217.465 427.04 217.276 427.017C217.09 426.991 216.91 426.977 216.736 426.977C216.361 426.977 216.024 427.059 215.724 427.222C215.429 427.381 215.196 427.602 215.026 427.886C214.855 428.17 214.77 428.498 214.77 428.869V434H212.713Z" fill="black"/>
<path d="M304.148 434V422.364H306.256V432.233H311.381V434H304.148ZM313.119 434V425.273H315.176V434H313.119ZM314.153 424.034C313.828 424.034 313.547 423.926 313.312 423.71C313.078 423.491 312.96 423.227 312.96 422.92C312.96 422.61 313.078 422.347 313.312 422.131C313.547 421.911 313.828 421.801 314.153 421.801C314.483 421.801 314.763 421.911 314.994 422.131C315.229 422.347 315.347 422.61 315.347 422.92C315.347 423.227 315.229 423.491 314.994 423.71C314.763 423.926 314.483 424.034 314.153 424.034ZM319.348 428.886V434H317.291V425.273H319.257V426.756H319.359C319.56 426.267 319.88 425.879 320.32 425.591C320.763 425.303 321.31 425.159 321.962 425.159C322.564 425.159 323.089 425.288 323.536 425.545C323.986 425.803 324.335 426.176 324.581 426.665C324.831 427.153 324.954 427.746 324.95 428.443V434H322.893V428.761C322.893 428.178 322.742 427.722 322.439 427.392C322.14 427.062 321.725 426.898 321.195 426.898C320.835 426.898 320.515 426.977 320.234 427.136C319.958 427.292 319.74 427.517 319.581 427.812C319.426 428.108 319.348 428.466 319.348 428.886ZM330.905 434.17C330.03 434.17 329.274 433.989 328.638 433.625C328.005 433.258 327.518 432.739 327.178 432.068C326.837 431.394 326.666 430.6 326.666 429.688C326.666 428.79 326.837 428.002 327.178 427.324C327.522 426.642 328.003 426.112 328.621 425.733C329.238 425.35 329.964 425.159 330.797 425.159C331.335 425.159 331.842 425.246 332.32 425.42C332.801 425.591 333.225 425.856 333.592 426.216C333.964 426.576 334.255 427.034 334.467 427.591C334.679 428.144 334.786 428.803 334.786 429.568V430.199H327.632V428.812H332.814C332.81 428.419 332.725 428.068 332.558 427.761C332.392 427.451 332.159 427.206 331.859 427.028C331.564 426.85 331.219 426.761 330.825 426.761C330.405 426.761 330.036 426.864 329.717 427.068C329.399 427.269 329.151 427.534 328.973 427.864C328.799 428.189 328.71 428.547 328.706 428.938V430.148C328.706 430.655 328.799 431.091 328.984 431.455C329.17 431.814 329.429 432.091 329.763 432.284C330.096 432.473 330.486 432.568 330.933 432.568C331.232 432.568 331.503 432.527 331.746 432.443C331.988 432.356 332.198 432.229 332.376 432.062C332.554 431.896 332.689 431.689 332.78 431.443L334.7 431.659C334.579 432.167 334.348 432.61 334.007 432.989C333.67 433.364 333.238 433.655 332.712 433.864C332.185 434.068 331.583 434.17 330.905 434.17ZM339.037 434.176C338.484 434.176 337.986 434.078 337.543 433.881C337.103 433.68 336.755 433.384 336.497 432.994C336.243 432.604 336.116 432.123 336.116 431.551C336.116 431.059 336.207 430.652 336.389 430.33C336.571 430.008 336.819 429.75 337.134 429.557C337.448 429.364 337.802 429.218 338.196 429.119C338.594 429.017 339.005 428.943 339.429 428.898C339.94 428.845 340.355 428.797 340.673 428.756C340.991 428.71 341.223 428.642 341.366 428.551C341.514 428.456 341.588 428.311 341.588 428.114V428.08C341.588 427.652 341.461 427.32 341.207 427.085C340.954 426.85 340.588 426.733 340.111 426.733C339.607 426.733 339.207 426.843 338.912 427.062C338.62 427.282 338.423 427.542 338.321 427.841L336.401 427.568C336.552 427.038 336.802 426.595 337.151 426.239C337.499 425.879 337.925 425.61 338.429 425.432C338.933 425.25 339.49 425.159 340.099 425.159C340.52 425.159 340.938 425.208 341.355 425.307C341.772 425.405 342.152 425.568 342.497 425.795C342.842 426.019 343.118 426.324 343.327 426.71C343.539 427.097 343.645 427.58 343.645 428.159V434H341.668V432.801H341.599C341.474 433.044 341.298 433.271 341.071 433.483C340.848 433.691 340.565 433.86 340.224 433.989C339.887 434.114 339.491 434.176 339.037 434.176ZM339.571 432.665C339.984 432.665 340.342 432.583 340.645 432.42C340.948 432.254 341.181 432.034 341.344 431.761C341.51 431.489 341.594 431.191 341.594 430.869V429.841C341.529 429.894 341.42 429.943 341.264 429.989C341.113 430.034 340.942 430.074 340.753 430.108C340.563 430.142 340.376 430.172 340.19 430.199C340.005 430.225 339.844 430.248 339.707 430.267C339.401 430.309 339.126 430.377 338.884 430.472C338.641 430.566 338.45 430.699 338.31 430.869C338.17 431.036 338.099 431.252 338.099 431.517C338.099 431.896 338.238 432.182 338.514 432.375C338.791 432.568 339.143 432.665 339.571 432.665ZM345.713 434V425.273H347.707V426.727H347.798C347.957 426.223 348.23 425.835 348.616 425.562C349.007 425.286 349.452 425.148 349.952 425.148C350.065 425.148 350.192 425.153 350.332 425.165C350.476 425.172 350.596 425.186 350.69 425.205V427.097C350.603 427.066 350.465 427.04 350.276 427.017C350.09 426.991 349.91 426.977 349.736 426.977C349.361 426.977 349.024 427.059 348.724 427.222C348.429 427.381 348.196 427.602 348.026 427.886C347.855 428.17 347.77 428.498 347.77 428.869V434H345.713Z" fill="black"/>
<path d="M437.148 434V422.364H439.256V432.233H444.381V434H437.148ZM446.119 434V425.273H448.176V434H446.119ZM447.153 424.034C446.828 424.034 446.547 423.926 446.312 423.71C446.078 423.491 445.96 423.227 445.96 422.92C445.96 422.61 446.078 422.347 446.312 422.131C446.547 421.911 446.828 421.801 447.153 421.801C447.483 421.801 447.763 421.911 447.994 422.131C448.229 422.347 448.347 422.61 448.347 422.92C448.347 423.227 448.229 423.491 447.994 423.71C447.763 423.926 447.483 424.034 447.153 424.034ZM452.348 428.886V434H450.291V425.273H452.257V426.756H452.359C452.56 426.267 452.88 425.879 453.32 425.591C453.763 425.303 454.31 425.159 454.962 425.159C455.564 425.159 456.089 425.288 456.536 425.545C456.986 425.803 457.335 426.176 457.581 426.665C457.831 427.153 457.954 427.746 457.95 428.443V434H455.893V428.761C455.893 428.178 455.742 427.722 455.439 427.392C455.14 427.062 454.725 426.898 454.195 426.898C453.835 426.898 453.515 426.977 453.234 427.136C452.958 427.292 452.74 427.517 452.581 427.812C452.426 428.108 452.348 428.466 452.348 428.886ZM463.905 434.17C463.03 434.17 462.274 433.989 461.638 433.625C461.005 433.258 460.518 432.739 460.178 432.068C459.837 431.394 459.666 430.6 459.666 429.688C459.666 428.79 459.837 428.002 460.178 427.324C460.522 426.642 461.003 426.112 461.621 425.733C462.238 425.35 462.964 425.159 463.797 425.159C464.335 425.159 464.842 425.246 465.32 425.42C465.801 425.591 466.225 425.856 466.592 426.216C466.964 426.576 467.255 427.034 467.467 427.591C467.679 428.144 467.786 428.803 467.786 429.568V430.199H460.632V428.812H465.814C465.81 428.419 465.725 428.068 465.558 427.761C465.392 427.451 465.159 427.206 464.859 427.028C464.564 426.85 464.219 426.761 463.825 426.761C463.405 426.761 463.036 426.864 462.717 427.068C462.399 427.269 462.151 427.534 461.973 427.864C461.799 428.189 461.71 428.547 461.706 428.938V430.148C461.706 430.655 461.799 431.091 461.984 431.455C462.17 431.814 462.429 432.091 462.763 432.284C463.096 432.473 463.486 432.568 463.933 432.568C464.232 432.568 464.503 432.527 464.746 432.443C464.988 432.356 465.198 432.229 465.376 432.062C465.554 431.896 465.689 431.689 465.78 431.443L467.7 431.659C467.579 432.167 467.348 432.61 467.007 432.989C466.67 433.364 466.238 433.655 465.712 433.864C465.185 434.068 464.583 434.17 463.905 434.17ZM472.037 434.176C471.484 434.176 470.986 434.078 470.543 433.881C470.103 433.68 469.755 433.384 469.497 432.994C469.243 432.604 469.116 432.123 469.116 431.551C469.116 431.059 469.207 430.652 469.389 430.33C469.571 430.008 469.819 429.75 470.134 429.557C470.448 429.364 470.802 429.218 471.196 429.119C471.594 429.017 472.005 428.943 472.429 428.898C472.94 428.845 473.355 428.797 473.673 428.756C473.991 428.71 474.223 428.642 474.366 428.551C474.514 428.456 474.588 428.311 474.588 428.114V428.08C474.588 427.652 474.461 427.32 474.207 427.085C473.954 426.85 473.588 426.733 473.111 426.733C472.607 426.733 472.207 426.843 471.912 427.062C471.62 427.282 471.423 427.542 471.321 427.841L469.401 427.568C469.552 427.038 469.802 426.595 470.151 426.239C470.499 425.879 470.925 425.61 471.429 425.432C471.933 425.25 472.49 425.159 473.099 425.159C473.52 425.159 473.938 425.208 474.355 425.307C474.772 425.405 475.152 425.568 475.497 425.795C475.842 426.019 476.118 426.324 476.327 426.71C476.539 427.097 476.645 427.58 476.645 428.159V434H474.668V432.801H474.599C474.474 433.044 474.298 433.271 474.071 433.483C473.848 433.691 473.565 433.86 473.224 433.989C472.887 434.114 472.491 434.176 472.037 434.176ZM472.571 432.665C472.984 432.665 473.342 432.583 473.645 432.42C473.948 432.254 474.181 432.034 474.344 431.761C474.51 431.489 474.594 431.191 474.594 430.869V429.841C474.529 429.894 474.42 429.943 474.264 429.989C474.113 430.034 473.942 430.074 473.753 430.108C473.563 430.142 473.376 430.172 473.19 430.199C473.005 430.225 472.844 430.248 472.707 430.267C472.401 430.309 472.126 430.377 471.884 430.472C471.641 430.566 471.45 430.699 471.31 430.869C471.17 431.036 471.099 431.252 471.099 431.517C471.099 431.896 471.238 432.182 471.514 432.375C471.791 432.568 472.143 432.665 472.571 432.665ZM478.713 434V425.273H480.707V426.727H480.798C480.957 426.223 481.23 425.835 481.616 425.562C482.007 425.286 482.452 425.148 482.952 425.148C483.065 425.148 483.192 425.153 483.332 425.165C483.476 425.172 483.596 425.186 483.69 425.205V427.097C483.603 427.066 483.465 427.04 483.276 427.017C483.09 426.991 482.91 426.977 482.736 426.977C482.361 426.977 482.024 427.059 481.724 427.222C481.429 427.381 481.196 427.602 481.026 427.886C480.855 428.17 480.77 428.498 480.77 428.869V434H478.713Z" fill="black"/>
<path d="M193.1 532.114H195.486L196.9 533.946L197.908 535.139L200.33 538.25H197.773L196.125 536.162L195.422 535.168L193.1 532.114ZM200.678 529.727C200.678 531.295 200.384 532.637 199.797 533.754C199.215 534.867 198.419 535.719 197.411 536.311C196.407 536.903 195.268 537.199 193.995 537.199C192.721 537.199 191.58 536.903 190.571 536.311C189.568 535.714 188.772 534.86 188.185 533.747C187.603 532.63 187.311 531.29 187.311 529.727C187.311 528.16 187.603 526.82 188.185 525.707C188.772 524.59 189.568 523.735 190.571 523.143C191.58 522.552 192.721 522.256 193.995 522.256C195.268 522.256 196.407 522.552 197.411 523.143C198.419 523.735 199.215 524.59 199.797 525.707C200.384 526.82 200.678 528.16 200.678 529.727ZM198.029 529.727C198.029 528.624 197.856 527.694 197.51 526.936C197.169 526.174 196.696 525.598 196.09 525.21C195.484 524.817 194.785 524.621 193.995 524.621C193.204 524.621 192.506 524.817 191.9 525.21C191.293 525.598 190.818 526.174 190.472 526.936C190.131 527.694 189.961 528.624 189.961 529.727C189.961 530.83 190.131 531.763 190.472 532.526C190.818 533.283 191.293 533.858 191.9 534.251C192.506 534.64 193.204 534.834 193.995 534.834C194.785 534.834 195.484 534.64 196.09 534.251C196.696 533.858 197.169 533.283 197.51 532.526C197.856 531.763 198.029 530.83 198.029 529.727Z" fill="black"/>
<path d="M321.667 537V522.455H324.302V529.138H324.48L330.154 522.455H333.372L327.747 528.982L333.421 537H330.254L325.914 530.764L324.302 532.668V537H321.667Z" fill="black"/>
<path d="M456.644 522.455L460.43 533.903H460.579L464.357 522.455H467.255L462.127 537H458.874L453.754 522.455H456.644Z" fill="black"/>
<path d="M211.839 294.562C211.786 294.066 211.562 293.68 211.168 293.403C210.778 293.127 210.271 292.989 209.646 292.989C209.206 292.989 208.829 293.055 208.515 293.188C208.201 293.32 207.96 293.5 207.793 293.727C207.627 293.955 207.541 294.214 207.538 294.506C207.538 294.748 207.593 294.958 207.702 295.136C207.816 295.314 207.969 295.466 208.163 295.591C208.356 295.712 208.57 295.814 208.805 295.898C209.04 295.981 209.276 296.051 209.515 296.108L210.606 296.381C211.045 296.483 211.468 296.621 211.873 296.795C212.282 296.97 212.647 297.189 212.969 297.455C213.295 297.72 213.553 298.04 213.742 298.415C213.932 298.79 214.026 299.229 214.026 299.733C214.026 300.415 213.852 301.015 213.504 301.534C213.155 302.049 212.651 302.453 211.992 302.744C211.337 303.032 210.543 303.176 209.612 303.176C208.706 303.176 207.92 303.036 207.254 302.756C206.591 302.475 206.072 302.066 205.697 301.528C205.326 300.991 205.125 300.335 205.094 299.562H207.168C207.199 299.968 207.324 300.305 207.543 300.574C207.763 300.843 208.049 301.044 208.401 301.176C208.757 301.309 209.155 301.375 209.594 301.375C210.053 301.375 210.454 301.307 210.799 301.17C211.147 301.03 211.42 300.837 211.617 300.591C211.814 300.341 211.915 300.049 211.918 299.716C211.915 299.413 211.826 299.163 211.651 298.966C211.477 298.765 211.233 298.598 210.918 298.466C210.608 298.33 210.244 298.208 209.827 298.102L208.504 297.761C207.545 297.515 206.788 297.142 206.231 296.642C205.678 296.138 205.401 295.47 205.401 294.636C205.401 293.951 205.587 293.35 205.958 292.835C206.333 292.32 206.843 291.92 207.487 291.636C208.13 291.348 208.86 291.205 209.674 291.205C210.5 291.205 211.223 291.348 211.844 291.636C212.469 291.92 212.96 292.316 213.316 292.824C213.672 293.328 213.856 293.907 213.867 294.562H211.839ZM219.621 303.17C218.75 303.17 218.002 302.979 217.377 302.597C216.756 302.214 216.277 301.686 215.94 301.011C215.606 300.333 215.44 299.553 215.44 298.67C215.44 297.784 215.61 297.002 215.951 296.324C216.292 295.642 216.773 295.112 217.394 294.733C218.019 294.35 218.758 294.159 219.61 294.159C220.318 294.159 220.945 294.29 221.491 294.551C222.04 294.809 222.478 295.174 222.803 295.648C223.129 296.117 223.315 296.667 223.36 297.295H221.394C221.315 296.875 221.125 296.525 220.826 296.244C220.531 295.96 220.135 295.818 219.638 295.818C219.218 295.818 218.849 295.932 218.531 296.159C218.212 296.383 217.964 296.705 217.786 297.125C217.612 297.545 217.525 298.049 217.525 298.636C217.525 299.231 217.612 299.742 217.786 300.17C217.96 300.595 218.205 300.922 218.519 301.153C218.837 301.381 219.21 301.494 219.638 301.494C219.942 301.494 220.212 301.437 220.451 301.324C220.693 301.206 220.896 301.038 221.059 300.818C221.222 300.598 221.334 300.331 221.394 300.017H223.36C223.311 300.634 223.129 301.182 222.815 301.659C222.5 302.133 222.072 302.504 221.531 302.773C220.989 303.038 220.353 303.17 219.621 303.17ZM227.56 303.176C227.007 303.176 226.509 303.078 226.066 302.881C225.627 302.68 225.278 302.384 225.021 301.994C224.767 301.604 224.64 301.123 224.64 300.551C224.64 300.059 224.731 299.652 224.913 299.33C225.094 299.008 225.343 298.75 225.657 298.557C225.971 298.364 226.326 298.218 226.719 298.119C227.117 298.017 227.528 297.943 227.952 297.898C228.464 297.845 228.879 297.797 229.197 297.756C229.515 297.71 229.746 297.642 229.89 297.551C230.038 297.456 230.112 297.311 230.112 297.114V297.08C230.112 296.652 229.985 296.32 229.731 296.085C229.477 295.85 229.112 295.733 228.634 295.733C228.13 295.733 227.731 295.843 227.435 296.062C227.144 296.282 226.947 296.542 226.844 296.841L224.924 296.568C225.076 296.038 225.326 295.595 225.674 295.239C226.022 294.879 226.449 294.61 226.952 294.432C227.456 294.25 228.013 294.159 228.623 294.159C229.043 294.159 229.462 294.208 229.879 294.307C230.295 294.405 230.676 294.568 231.021 294.795C231.365 295.019 231.642 295.324 231.85 295.71C232.062 296.097 232.168 296.58 232.168 297.159V303H230.191V301.801H230.123C229.998 302.044 229.822 302.271 229.594 302.483C229.371 302.691 229.089 302.86 228.748 302.989C228.411 303.114 228.015 303.176 227.56 303.176ZM228.094 301.665C228.507 301.665 228.865 301.583 229.168 301.42C229.471 301.254 229.704 301.034 229.867 300.761C230.034 300.489 230.117 300.191 230.117 299.869V298.841C230.053 298.894 229.943 298.943 229.788 298.989C229.636 299.034 229.466 299.074 229.276 299.108C229.087 299.142 228.899 299.172 228.714 299.199C228.528 299.225 228.367 299.248 228.231 299.267C227.924 299.309 227.649 299.377 227.407 299.472C227.165 299.566 226.973 299.699 226.833 299.869C226.693 300.036 226.623 300.252 226.623 300.517C226.623 300.896 226.761 301.182 227.038 301.375C227.314 301.568 227.666 301.665 228.094 301.665ZM236.293 291.364V303H234.237V291.364H236.293ZM242.272 303.17C241.397 303.17 240.641 302.989 240.005 302.625C239.372 302.258 238.886 301.739 238.545 301.068C238.204 300.394 238.033 299.6 238.033 298.688C238.033 297.79 238.204 297.002 238.545 296.324C238.889 295.642 239.371 295.112 239.988 294.733C240.605 294.35 241.331 294.159 242.164 294.159C242.702 294.159 243.21 294.246 243.687 294.42C244.168 294.591 244.592 294.856 244.96 295.216C245.331 295.576 245.622 296.034 245.835 296.591C246.047 297.144 246.153 297.803 246.153 298.568V299.199H238.999V297.812H244.181C244.177 297.419 244.092 297.068 243.925 296.761C243.759 296.451 243.526 296.206 243.227 296.028C242.931 295.85 242.586 295.761 242.192 295.761C241.772 295.761 241.403 295.864 241.085 296.068C240.766 296.269 240.518 296.534 240.34 296.864C240.166 297.189 240.077 297.547 240.073 297.938V299.148C240.073 299.655 240.166 300.091 240.352 300.455C240.537 300.814 240.797 301.091 241.13 301.284C241.463 301.473 241.853 301.568 242.3 301.568C242.6 301.568 242.871 301.527 243.113 301.443C243.355 301.356 243.566 301.229 243.744 301.062C243.922 300.896 244.056 300.689 244.147 300.443L246.067 300.659C245.946 301.167 245.715 301.61 245.374 301.989C245.037 302.364 244.605 302.655 244.079 302.864C243.552 303.068 242.95 303.17 242.272 303.17ZM251.131 303.153C250.446 303.153 249.832 302.977 249.29 302.625C248.749 302.273 248.321 301.761 248.006 301.091C247.692 300.42 247.535 299.606 247.535 298.648C247.535 297.678 247.694 296.86 248.012 296.193C248.334 295.523 248.768 295.017 249.313 294.676C249.859 294.331 250.467 294.159 251.137 294.159C251.648 294.159 252.069 294.246 252.398 294.42C252.728 294.591 252.989 294.797 253.183 295.04C253.376 295.278 253.525 295.504 253.631 295.716H253.717V291.364H255.779V303H253.756V301.625H253.631C253.525 301.837 253.372 302.062 253.171 302.301C252.97 302.536 252.705 302.737 252.376 302.903C252.046 303.07 251.631 303.153 251.131 303.153ZM251.705 301.466C252.141 301.466 252.512 301.348 252.819 301.114C253.126 300.875 253.359 300.544 253.518 300.119C253.677 299.695 253.756 299.201 253.756 298.636C253.756 298.072 253.677 297.581 253.518 297.165C253.362 296.748 253.131 296.424 252.825 296.193C252.522 295.962 252.148 295.847 251.705 295.847C251.247 295.847 250.864 295.966 250.558 296.205C250.251 296.443 250.02 296.773 249.864 297.193C249.709 297.614 249.631 298.095 249.631 298.636C249.631 299.182 249.709 299.669 249.864 300.097C250.023 300.521 250.256 300.856 250.563 301.102C250.874 301.345 251.254 301.466 251.705 301.466ZM265.974 303H262.031V291.364H266.053C267.209 291.364 268.201 291.597 269.031 292.062C269.864 292.525 270.504 293.189 270.951 294.057C271.398 294.924 271.621 295.962 271.621 297.17C271.621 298.383 271.396 299.424 270.945 300.295C270.498 301.167 269.853 301.835 269.008 302.301C268.167 302.767 267.156 303 265.974 303ZM264.138 301.176H265.871C266.682 301.176 267.358 301.028 267.9 300.733C268.442 300.434 268.849 299.989 269.121 299.398C269.394 298.803 269.531 298.061 269.531 297.17C269.531 296.28 269.394 295.542 269.121 294.955C268.849 294.364 268.445 293.922 267.911 293.631C267.381 293.335 266.722 293.188 265.934 293.188H264.138V301.176ZM277.34 303.17C276.488 303.17 275.749 302.983 275.124 302.608C274.499 302.233 274.014 301.708 273.67 301.034C273.329 300.36 273.158 299.572 273.158 298.67C273.158 297.769 273.329 296.979 273.67 296.301C274.014 295.623 274.499 295.097 275.124 294.722C275.749 294.347 276.488 294.159 277.34 294.159C278.192 294.159 278.931 294.347 279.556 294.722C280.181 295.097 280.664 295.623 281.005 296.301C281.35 296.979 281.522 297.769 281.522 298.67C281.522 299.572 281.35 300.36 281.005 301.034C280.664 301.708 280.181 302.233 279.556 302.608C278.931 302.983 278.192 303.17 277.34 303.17ZM277.352 301.523C277.814 301.523 278.2 301.396 278.511 301.142C278.821 300.884 279.052 300.54 279.204 300.108C279.359 299.676 279.437 299.195 279.437 298.665C279.437 298.131 279.359 297.648 279.204 297.216C279.052 296.78 278.821 296.434 278.511 296.176C278.2 295.919 277.814 295.79 277.352 295.79C276.878 295.79 276.484 295.919 276.17 296.176C275.859 296.434 275.626 296.78 275.471 297.216C275.319 297.648 275.244 298.131 275.244 298.665C275.244 299.195 275.319 299.676 275.471 300.108C275.626 300.54 275.859 300.884 276.17 301.142C276.484 301.396 276.878 301.523 277.352 301.523ZM287.626 294.273V295.864H282.609V294.273H287.626ZM283.847 292.182H285.904V300.375C285.904 300.652 285.946 300.864 286.029 301.011C286.116 301.155 286.23 301.254 286.37 301.307C286.51 301.36 286.665 301.386 286.836 301.386C286.965 301.386 287.082 301.377 287.188 301.358C287.298 301.339 287.381 301.322 287.438 301.307L287.785 302.915C287.675 302.953 287.518 302.994 287.313 303.04C287.112 303.085 286.866 303.112 286.575 303.119C286.059 303.134 285.595 303.057 285.183 302.886C284.77 302.712 284.442 302.443 284.2 302.08C283.961 301.716 283.844 301.261 283.847 300.716V292.182ZM294.354 297.307V299H289.116V297.307H294.354ZM296.609 303V291.364H300.972C301.866 291.364 302.616 291.53 303.222 291.864C303.832 292.197 304.292 292.655 304.603 293.239C304.917 293.818 305.075 294.477 305.075 295.216C305.075 295.962 304.917 296.625 304.603 297.205C304.289 297.784 303.825 298.241 303.211 298.574C302.597 298.903 301.842 299.068 300.944 299.068H298.052V297.335H300.66C301.183 297.335 301.611 297.244 301.944 297.062C302.277 296.881 302.523 296.631 302.683 296.312C302.845 295.994 302.927 295.629 302.927 295.216C302.927 294.803 302.845 294.439 302.683 294.125C302.523 293.811 302.275 293.566 301.938 293.392C301.605 293.214 301.175 293.125 300.648 293.125H298.717V303H296.609ZM306.815 303V294.273H308.809V295.727H308.9C309.059 295.223 309.332 294.835 309.718 294.562C310.108 294.286 310.553 294.148 311.053 294.148C311.167 294.148 311.294 294.153 311.434 294.165C311.578 294.172 311.697 294.186 311.792 294.205V296.097C311.705 296.066 311.567 296.04 311.377 296.017C311.192 295.991 311.012 295.977 310.837 295.977C310.462 295.977 310.125 296.059 309.826 296.222C309.531 296.381 309.298 296.602 309.127 296.886C308.957 297.17 308.871 297.498 308.871 297.869V303H306.815ZM316.606 303.17C315.754 303.17 315.015 302.983 314.39 302.608C313.765 302.233 313.28 301.708 312.935 301.034C312.594 300.36 312.424 299.572 312.424 298.67C312.424 297.769 312.594 296.979 312.935 296.301C313.28 295.623 313.765 295.097 314.39 294.722C315.015 294.347 315.754 294.159 316.606 294.159C317.458 294.159 318.197 294.347 318.822 294.722C319.447 295.097 319.93 295.623 320.271 296.301C320.615 296.979 320.788 297.769 320.788 298.67C320.788 299.572 320.615 300.36 320.271 301.034C319.93 301.708 319.447 302.233 318.822 302.608C318.197 302.983 317.458 303.17 316.606 303.17ZM316.617 301.523C317.079 301.523 317.466 301.396 317.776 301.142C318.087 300.884 318.318 300.54 318.469 300.108C318.625 299.676 318.702 299.195 318.702 298.665C318.702 298.131 318.625 297.648 318.469 297.216C318.318 296.78 318.087 296.434 317.776 296.176C317.466 295.919 317.079 295.79 316.617 295.79C316.144 295.79 315.75 295.919 315.435 296.176C315.125 296.434 314.892 296.78 314.737 297.216C314.585 297.648 314.509 298.131 314.509 298.665C314.509 299.195 314.585 299.676 314.737 300.108C314.892 300.54 315.125 300.884 315.435 301.142C315.75 301.396 316.144 301.523 316.617 301.523ZM325.772 303.153C325.086 303.153 324.473 302.977 323.931 302.625C323.389 302.273 322.961 301.761 322.647 301.091C322.333 300.42 322.175 299.606 322.175 298.648C322.175 297.678 322.335 296.86 322.653 296.193C322.975 295.523 323.408 295.017 323.954 294.676C324.499 294.331 325.107 294.159 325.778 294.159C326.289 294.159 326.71 294.246 327.039 294.42C327.369 294.591 327.63 294.797 327.823 295.04C328.016 295.278 328.166 295.504 328.272 295.716H328.357V291.364H330.42V303H328.397V301.625H328.272C328.166 301.837 328.013 302.062 327.812 302.301C327.611 302.536 327.346 302.737 327.016 302.903C326.687 303.07 326.272 303.153 325.772 303.153ZM326.346 301.466C326.781 301.466 327.153 301.348 327.46 301.114C327.766 300.875 327.999 300.544 328.158 300.119C328.317 299.695 328.397 299.201 328.397 298.636C328.397 298.072 328.317 297.581 328.158 297.165C328.003 296.748 327.772 296.424 327.465 296.193C327.162 295.962 326.789 295.847 326.346 295.847C325.888 295.847 325.505 295.966 325.198 296.205C324.891 296.443 324.66 296.773 324.505 297.193C324.35 297.614 324.272 298.095 324.272 298.636C324.272 299.182 324.35 299.669 324.505 300.097C324.664 300.521 324.897 300.856 325.204 301.102C325.514 301.345 325.895 301.466 326.346 301.466ZM338.174 299.33V294.273H340.231V303H338.237V301.449H338.146C337.949 301.937 337.625 302.337 337.174 302.648C336.727 302.958 336.176 303.114 335.521 303.114C334.949 303.114 334.443 302.987 334.004 302.733C333.568 302.475 333.227 302.102 332.981 301.614C332.735 301.121 332.612 300.527 332.612 299.83V294.273H334.668V299.511C334.668 300.064 334.82 300.504 335.123 300.83C335.426 301.155 335.824 301.318 336.316 301.318C336.619 301.318 336.913 301.244 337.197 301.097C337.481 300.949 337.714 300.729 337.896 300.438C338.081 300.142 338.174 299.773 338.174 299.33ZM346.153 303.17C345.281 303.17 344.533 302.979 343.908 302.597C343.287 302.214 342.808 301.686 342.471 301.011C342.138 300.333 341.971 299.553 341.971 298.67C341.971 297.784 342.141 297.002 342.482 296.324C342.823 295.642 343.304 295.112 343.925 294.733C344.55 294.35 345.289 294.159 346.141 294.159C346.85 294.159 347.477 294.29 348.022 294.551C348.571 294.809 349.009 295.174 349.335 295.648C349.66 296.117 349.846 296.667 349.891 297.295H347.925C347.846 296.875 347.656 296.525 347.357 296.244C347.062 295.96 346.666 295.818 346.17 295.818C345.749 295.818 345.38 295.932 345.062 296.159C344.744 296.383 344.496 296.705 344.317 297.125C344.143 297.545 344.056 298.049 344.056 298.636C344.056 299.231 344.143 299.742 344.317 300.17C344.492 300.595 344.736 300.922 345.05 301.153C345.369 301.381 345.742 301.494 346.17 301.494C346.473 301.494 346.744 301.437 346.982 301.324C347.225 301.206 347.427 301.038 347.59 300.818C347.753 300.598 347.865 300.331 347.925 300.017H349.891C349.842 300.634 349.66 301.182 349.346 301.659C349.031 302.133 348.603 302.504 348.062 302.773C347.52 303.038 346.884 303.17 346.153 303.17ZM355.938 294.273V295.864H350.921V294.273H355.938ZM352.16 292.182H354.217V300.375C354.217 300.652 354.258 300.864 354.342 301.011C354.429 301.155 354.542 301.254 354.683 301.307C354.823 301.36 354.978 301.386 355.148 301.386C355.277 301.386 355.395 301.377 355.501 301.358C355.611 301.339 355.694 301.322 355.751 301.307L356.097 302.915C355.987 302.953 355.83 302.994 355.626 303.04C355.425 303.085 355.179 303.112 354.887 303.119C354.372 303.134 353.908 303.057 353.495 302.886C353.082 302.712 352.754 302.443 352.512 302.08C352.273 301.716 352.156 301.261 352.16 300.716V292.182ZM363.212 303H360.962L365.059 291.364H367.661L371.763 303H369.513L366.406 293.75H366.315L363.212 303ZM363.286 298.438H369.423V300.131H363.286V298.438ZM377.016 294.273V295.864H371.999V294.273H377.016ZM373.238 292.182H375.295V300.375C375.295 300.652 375.336 300.864 375.42 301.011C375.507 301.155 375.621 301.254 375.761 301.307C375.901 301.36 376.056 301.386 376.227 301.386C376.355 301.386 376.473 301.377 376.579 301.358C376.689 301.339 376.772 301.322 376.829 301.307L377.175 302.915C377.066 302.953 376.908 302.994 376.704 303.04C376.503 303.085 376.257 303.112 375.965 303.119C375.45 303.134 374.986 303.057 374.573 302.886C374.16 302.712 373.833 302.443 373.59 302.08C373.352 301.716 373.234 301.261 373.238 300.716V292.182ZM383.094 294.273V295.864H378.077V294.273H383.094ZM379.316 292.182H381.373V300.375C381.373 300.652 381.415 300.864 381.498 301.011C381.585 301.155 381.699 301.254 381.839 301.307C381.979 301.36 382.134 301.386 382.305 301.386C382.433 301.386 382.551 301.377 382.657 301.358C382.767 301.339 382.85 301.322 382.907 301.307L383.254 302.915C383.144 302.953 382.987 302.994 382.782 303.04C382.581 303.085 382.335 303.112 382.043 303.119C381.528 303.134 381.064 303.057 380.651 302.886C380.238 302.712 379.911 302.443 379.668 302.08C379.43 301.716 379.312 301.261 379.316 300.716V292.182ZM388.585 303.17C387.71 303.17 386.954 302.989 386.317 302.625C385.685 302.258 385.198 301.739 384.857 301.068C384.516 300.394 384.346 299.6 384.346 298.688C384.346 297.79 384.516 297.002 384.857 296.324C385.202 295.642 385.683 295.112 386.3 294.733C386.918 294.35 387.643 294.159 388.477 294.159C389.014 294.159 389.522 294.246 389.999 294.42C390.48 294.591 390.905 294.856 391.272 295.216C391.643 295.576 391.935 296.034 392.147 296.591C392.359 297.144 392.465 297.803 392.465 298.568V299.199H385.312V297.812H390.494C390.49 297.419 390.405 297.068 390.238 296.761C390.071 296.451 389.838 296.206 389.539 296.028C389.244 295.85 388.899 295.761 388.505 295.761C388.085 295.761 387.715 295.864 387.397 296.068C387.079 296.269 386.831 296.534 386.653 296.864C386.478 297.189 386.389 297.547 386.386 297.938V299.148C386.386 299.655 386.478 300.091 386.664 300.455C386.85 300.814 387.109 301.091 387.442 301.284C387.776 301.473 388.166 301.568 388.613 301.568C388.912 301.568 389.183 301.527 389.425 301.443C389.668 301.356 389.878 301.229 390.056 301.062C390.234 300.896 390.369 300.689 390.46 300.443L392.38 300.659C392.259 301.167 392.028 301.61 391.687 301.989C391.35 302.364 390.918 302.655 390.391 302.864C389.865 303.068 389.263 303.17 388.585 303.17ZM396.262 297.886V303H394.205V294.273H396.171V295.756H396.273C396.474 295.267 396.794 294.879 397.234 294.591C397.677 294.303 398.224 294.159 398.876 294.159C399.478 294.159 400.003 294.288 400.45 294.545C400.9 294.803 401.249 295.176 401.495 295.665C401.745 296.153 401.868 296.746 401.864 297.443V303H399.808V297.761C399.808 297.178 399.656 296.722 399.353 296.392C399.054 296.062 398.639 295.898 398.109 295.898C397.749 295.898 397.429 295.977 397.148 296.136C396.872 296.292 396.654 296.517 396.495 296.812C396.34 297.108 396.262 297.466 396.262 297.886ZM408.313 294.273V295.864H403.296V294.273H408.313ZM404.535 292.182H406.592V300.375C406.592 300.652 406.633 300.864 406.717 301.011C406.804 301.155 406.917 301.254 407.058 301.307C407.198 301.36 407.353 301.386 407.523 301.386C407.652 301.386 407.77 301.377 407.876 301.358C407.986 301.339 408.069 301.322 408.126 301.307L408.472 302.915C408.362 302.953 408.205 302.994 408.001 303.04C407.8 303.085 407.554 303.112 407.262 303.119C406.747 303.134 406.283 303.057 405.87 302.886C405.457 302.712 405.129 302.443 404.887 302.08C404.648 301.716 404.531 301.261 404.535 300.716V292.182ZM410.033 303V294.273H412.09V303H410.033ZM411.067 293.034C410.742 293.034 410.461 292.926 410.227 292.71C409.992 292.491 409.874 292.227 409.874 291.92C409.874 291.61 409.992 291.347 410.227 291.131C410.461 290.911 410.742 290.801 411.067 290.801C411.397 290.801 411.677 290.911 411.908 291.131C412.143 291.347 412.261 291.61 412.261 291.92C412.261 292.227 412.143 292.491 411.908 292.71C411.677 292.926 411.397 293.034 411.067 293.034ZM418.012 303.17C417.16 303.17 416.421 302.983 415.796 302.608C415.171 302.233 414.686 301.708 414.342 301.034C414.001 300.36 413.83 299.572 413.83 298.67C413.83 297.769 414.001 296.979 414.342 296.301C414.686 295.623 415.171 295.097 415.796 294.722C416.421 294.347 417.16 294.159 418.012 294.159C418.864 294.159 419.603 294.347 420.228 294.722C420.853 295.097 421.336 295.623 421.677 296.301C422.022 296.979 422.194 297.769 422.194 298.67C422.194 299.572 422.022 300.36 421.677 301.034C421.336 301.708 420.853 302.233 420.228 302.608C419.603 302.983 418.864 303.17 418.012 303.17ZM418.023 301.523C418.486 301.523 418.872 301.396 419.183 301.142C419.493 300.884 419.724 300.54 419.876 300.108C420.031 299.676 420.109 299.195 420.109 298.665C420.109 298.131 420.031 297.648 419.876 297.216C419.724 296.78 419.493 296.434 419.183 296.176C418.872 295.919 418.486 295.79 418.023 295.79C417.55 295.79 417.156 295.919 416.842 296.176C416.531 296.434 416.298 296.78 416.143 297.216C415.991 297.648 415.915 298.131 415.915 298.665C415.915 299.195 415.991 299.676 416.143 300.108C416.298 300.54 416.531 300.884 416.842 301.142C417.156 301.396 417.55 301.523 418.023 301.523ZM425.996 297.886V303H423.94V294.273H425.906V295.756H426.008C426.209 295.267 426.529 294.879 426.968 294.591C427.411 294.303 427.959 294.159 428.61 294.159C429.212 294.159 429.737 294.288 430.184 294.545C430.635 294.803 430.983 295.176 431.229 295.665C431.479 296.153 431.603 296.746 431.599 297.443V303H429.542V297.761C429.542 297.178 429.39 296.722 429.087 296.392C428.788 296.062 428.373 295.898 427.843 295.898C427.483 295.898 427.163 295.977 426.883 296.136C426.606 296.292 426.388 296.517 426.229 296.812C426.074 297.108 425.996 297.466 425.996 297.886Z" fill="black"/>
<path d="M304.17 195.29H302.045C301.985 194.941 301.873 194.633 301.71 194.364C301.547 194.091 301.345 193.86 301.102 193.67C300.86 193.481 300.583 193.339 300.273 193.244C299.966 193.146 299.634 193.097 299.278 193.097C298.646 193.097 298.085 193.256 297.597 193.574C297.108 193.888 296.725 194.35 296.449 194.96C296.172 195.566 296.034 196.307 296.034 197.182C296.034 198.072 296.172 198.822 296.449 199.432C296.729 200.038 297.112 200.496 297.597 200.807C298.085 201.114 298.644 201.267 299.273 201.267C299.621 201.267 299.947 201.222 300.25 201.131C300.557 201.036 300.831 200.898 301.074 200.716C301.32 200.534 301.527 200.311 301.693 200.045C301.864 199.78 301.981 199.477 302.045 199.136L304.17 199.148C304.091 199.701 303.919 200.22 303.653 200.705C303.392 201.189 303.049 201.617 302.625 201.989C302.201 202.356 301.705 202.644 301.136 202.852C300.568 203.057 299.938 203.159 299.244 203.159C298.222 203.159 297.309 202.922 296.506 202.449C295.703 201.975 295.07 201.292 294.608 200.398C294.146 199.504 293.915 198.432 293.915 197.182C293.915 195.928 294.148 194.856 294.614 193.966C295.08 193.072 295.714 192.388 296.517 191.915C297.32 191.441 298.229 191.205 299.244 191.205C299.892 191.205 300.494 191.295 301.051 191.477C301.608 191.659 302.104 191.926 302.54 192.278C302.975 192.627 303.333 193.055 303.614 193.562C303.898 194.066 304.083 194.642 304.17 195.29ZM309.817 203.17C308.964 203.17 308.226 202.983 307.601 202.608C306.976 202.233 306.491 201.708 306.146 201.034C305.805 200.36 305.635 199.572 305.635 198.67C305.635 197.769 305.805 196.979 306.146 196.301C306.491 195.623 306.976 195.097 307.601 194.722C308.226 194.347 308.964 194.159 309.817 194.159C310.669 194.159 311.408 194.347 312.033 194.722C312.658 195.097 313.141 195.623 313.482 196.301C313.826 196.979 313.999 197.769 313.999 198.67C313.999 199.572 313.826 200.36 313.482 201.034C313.141 201.708 312.658 202.233 312.033 202.608C311.408 202.983 310.669 203.17 309.817 203.17ZM309.828 201.523C310.29 201.523 310.677 201.396 310.987 201.142C311.298 200.884 311.529 200.54 311.68 200.108C311.836 199.676 311.913 199.195 311.913 198.665C311.913 198.131 311.836 197.648 311.68 197.216C311.529 196.78 311.298 196.434 310.987 196.176C310.677 195.919 310.29 195.79 309.828 195.79C309.355 195.79 308.961 195.919 308.646 196.176C308.336 196.434 308.103 196.78 307.947 197.216C307.796 197.648 307.72 198.131 307.72 198.665C307.72 199.195 307.796 199.676 307.947 200.108C308.103 200.54 308.336 200.884 308.646 201.142C308.961 201.396 309.355 201.523 309.828 201.523ZM317.801 197.886V203H315.744V194.273H317.71V195.756H317.812C318.013 195.267 318.333 194.879 318.773 194.591C319.216 194.303 319.763 194.159 320.415 194.159C321.017 194.159 321.542 194.288 321.989 194.545C322.439 194.803 322.788 195.176 323.034 195.665C323.284 196.153 323.407 196.746 323.403 197.443V203H321.347V197.761C321.347 197.178 321.195 196.722 320.892 196.392C320.593 196.062 320.178 195.898 319.648 195.898C319.288 195.898 318.968 195.977 318.688 196.136C318.411 196.292 318.193 196.517 318.034 196.812C317.879 197.108 317.801 197.466 317.801 197.886ZM329.301 203.17C328.43 203.17 327.682 202.979 327.057 202.597C326.436 202.214 325.956 201.686 325.619 201.011C325.286 200.333 325.119 199.553 325.119 198.67C325.119 197.784 325.29 197.002 325.631 196.324C325.972 195.642 326.453 195.112 327.074 194.733C327.699 194.35 328.438 194.159 329.29 194.159C329.998 194.159 330.625 194.29 331.17 194.551C331.72 194.809 332.157 195.174 332.483 195.648C332.809 196.117 332.994 196.667 333.04 197.295H331.074C330.994 196.875 330.805 196.525 330.506 196.244C330.21 195.96 329.814 195.818 329.318 195.818C328.898 195.818 328.528 195.932 328.21 196.159C327.892 196.383 327.644 196.705 327.466 197.125C327.292 197.545 327.205 198.049 327.205 198.636C327.205 199.231 327.292 199.742 327.466 200.17C327.64 200.595 327.884 200.922 328.199 201.153C328.517 201.381 328.89 201.494 329.318 201.494C329.621 201.494 329.892 201.437 330.131 201.324C330.373 201.206 330.576 201.038 330.739 200.818C330.902 200.598 331.013 200.331 331.074 200.017H333.04C332.991 200.634 332.809 201.182 332.494 201.659C332.18 202.133 331.752 202.504 331.21 202.773C330.669 203.038 330.032 203.17 329.301 203.17ZM337.24 203.176C336.687 203.176 336.189 203.078 335.746 202.881C335.306 202.68 334.958 202.384 334.7 201.994C334.446 201.604 334.32 201.123 334.32 200.551C334.32 200.059 334.411 199.652 334.592 199.33C334.774 199.008 335.022 198.75 335.337 198.557C335.651 198.364 336.005 198.218 336.399 198.119C336.797 198.017 337.208 197.943 337.632 197.898C338.143 197.845 338.558 197.797 338.876 197.756C339.195 197.71 339.426 197.642 339.57 197.551C339.717 197.456 339.791 197.311 339.791 197.114V197.08C339.791 196.652 339.664 196.32 339.411 196.085C339.157 195.85 338.791 195.733 338.314 195.733C337.81 195.733 337.411 195.843 337.115 196.062C336.823 196.282 336.626 196.542 336.524 196.841L334.604 196.568C334.755 196.038 335.005 195.595 335.354 195.239C335.702 194.879 336.128 194.61 336.632 194.432C337.136 194.25 337.693 194.159 338.303 194.159C338.723 194.159 339.142 194.208 339.558 194.307C339.975 194.405 340.356 194.568 340.7 194.795C341.045 195.019 341.321 195.324 341.53 195.71C341.742 196.097 341.848 196.58 341.848 197.159V203H339.871V201.801H339.803C339.678 202.044 339.501 202.271 339.274 202.483C339.051 202.691 338.768 202.86 338.428 202.989C338.09 203.114 337.695 203.176 337.24 203.176ZM337.774 201.665C338.187 201.665 338.545 201.583 338.848 201.42C339.151 201.254 339.384 201.034 339.547 200.761C339.714 200.489 339.797 200.191 339.797 199.869V198.841C339.732 198.894 339.623 198.943 339.467 198.989C339.316 199.034 339.145 199.074 338.956 199.108C338.767 199.142 338.579 199.172 338.393 199.199C338.208 199.225 338.047 199.248 337.911 199.267C337.604 199.309 337.329 199.377 337.087 199.472C336.844 199.566 336.653 199.699 336.513 199.869C336.373 200.036 336.303 200.252 336.303 200.517C336.303 200.896 336.441 201.182 336.717 201.375C336.994 201.568 337.346 201.665 337.774 201.665ZM348.274 194.273V195.864H343.257V194.273H348.274ZM344.496 192.182H346.553V200.375C346.553 200.652 346.594 200.864 346.678 201.011C346.765 201.155 346.878 201.254 347.018 201.307C347.159 201.36 347.314 201.386 347.484 201.386C347.613 201.386 347.731 201.377 347.837 201.358C347.946 201.339 348.03 201.322 348.087 201.307L348.433 202.915C348.323 202.953 348.166 202.994 347.962 203.04C347.761 203.085 347.515 203.112 347.223 203.119C346.708 203.134 346.244 203.057 345.831 202.886C345.418 202.712 345.09 202.443 344.848 202.08C344.609 201.716 344.492 201.261 344.496 200.716V192.182Z" fill="black"/>
<path d="M298.148 103V91.3636H300.256V101.233H305.381V103H298.148ZM307.119 103V94.2727H309.176V103H307.119ZM308.153 93.0341C307.828 93.0341 307.547 92.9261 307.312 92.7102C307.078 92.4905 306.96 92.2273 306.96 91.9205C306.96 91.6098 307.078 91.3466 307.312 91.1307C307.547 90.911 307.828 90.8011 308.153 90.8011C308.483 90.8011 308.763 90.911 308.994 91.1307C309.229 91.3466 309.347 91.6098 309.347 91.9205C309.347 92.2273 309.229 92.4905 308.994 92.7102C308.763 92.9261 308.483 93.0341 308.153 93.0341ZM313.348 97.8864V103H311.291V94.2727H313.257V95.7557H313.359C313.56 95.267 313.88 94.8788 314.32 94.5909C314.763 94.303 315.31 94.1591 315.962 94.1591C316.564 94.1591 317.089 94.2879 317.536 94.5455C317.986 94.803 318.335 95.1761 318.581 95.6648C318.831 96.1534 318.954 96.7462 318.95 97.4432V103H316.893V97.7614C316.893 97.178 316.742 96.7216 316.439 96.392C316.14 96.0625 315.725 95.8977 315.195 95.8977C314.835 95.8977 314.515 95.9773 314.234 96.1364C313.958 96.2917 313.74 96.517 313.581 96.8125C313.426 97.108 313.348 97.4659 313.348 97.8864ZM324.905 103.17C324.03 103.17 323.274 102.989 322.638 102.625C322.005 102.258 321.518 101.739 321.178 101.068C320.837 100.394 320.666 99.6004 320.666 98.6875C320.666 97.7898 320.837 97.0019 321.178 96.3239C321.522 95.642 322.003 95.1117 322.621 94.733C323.238 94.3504 323.964 94.1591 324.797 94.1591C325.335 94.1591 325.842 94.2462 326.32 94.4205C326.801 94.5909 327.225 94.8561 327.592 95.2159C327.964 95.5758 328.255 96.0341 328.467 96.5909C328.679 97.1439 328.786 97.803 328.786 98.5682V99.1989H321.632V97.8125H326.814C326.81 97.4186 326.725 97.0682 326.558 96.7614C326.392 96.4508 326.159 96.2064 325.859 96.0284C325.564 95.8504 325.219 95.7614 324.825 95.7614C324.405 95.7614 324.036 95.8636 323.717 96.0682C323.399 96.2689 323.151 96.5341 322.973 96.8636C322.799 97.1894 322.71 97.5473 322.706 97.9375V99.1477C322.706 99.6553 322.799 100.091 322.984 100.455C323.17 100.814 323.429 101.091 323.763 101.284C324.096 101.473 324.486 101.568 324.933 101.568C325.232 101.568 325.503 101.527 325.746 101.443C325.988 101.356 326.198 101.229 326.376 101.062C326.554 100.896 326.689 100.689 326.78 100.443L328.7 100.659C328.579 101.167 328.348 101.61 328.007 101.989C327.67 102.364 327.238 102.655 326.712 102.864C326.185 103.068 325.583 103.17 324.905 103.17ZM333.037 103.176C332.484 103.176 331.986 103.078 331.543 102.881C331.103 102.68 330.755 102.384 330.497 101.994C330.243 101.604 330.116 101.123 330.116 100.551C330.116 100.059 330.207 99.6515 330.389 99.3295C330.571 99.0076 330.819 98.75 331.134 98.5568C331.448 98.3636 331.802 98.2178 332.196 98.1193C332.594 98.017 333.005 97.9432 333.429 97.8977C333.94 97.8447 334.355 97.7973 334.673 97.7557C334.991 97.7102 335.223 97.642 335.366 97.5511C335.514 97.4564 335.588 97.3106 335.588 97.1136V97.0795C335.588 96.6515 335.461 96.3201 335.207 96.0852C334.954 95.8504 334.588 95.733 334.111 95.733C333.607 95.733 333.207 95.8428 332.912 96.0625C332.62 96.2822 332.423 96.5417 332.321 96.8409L330.401 96.5682C330.552 96.0379 330.802 95.5947 331.151 95.2386C331.499 94.8788 331.925 94.6098 332.429 94.4318C332.933 94.25 333.49 94.1591 334.099 94.1591C334.52 94.1591 334.938 94.2083 335.355 94.3068C335.772 94.4053 336.152 94.5682 336.497 94.7955C336.842 95.0189 337.118 95.3239 337.327 95.7102C337.539 96.0966 337.645 96.5795 337.645 97.1591V103H335.668V101.801H335.599C335.474 102.044 335.298 102.271 335.071 102.483C334.848 102.691 334.565 102.86 334.224 102.989C333.887 103.114 333.491 103.176 333.037 103.176ZM333.571 101.665C333.984 101.665 334.342 101.583 334.645 101.42C334.948 101.254 335.181 101.034 335.344 100.761C335.51 100.489 335.594 100.191 335.594 99.8693V98.8409C335.529 98.8939 335.42 98.9432 335.264 98.9886C335.113 99.0341 334.942 99.0739 334.753 99.108C334.563 99.142 334.376 99.1723 334.19 99.1989C334.005 99.2254 333.844 99.2481 333.707 99.267C333.401 99.3087 333.126 99.3769 332.884 99.4716C332.641 99.5663 332.45 99.6989 332.31 99.8693C332.17 100.036 332.099 100.252 332.099 100.517C332.099 100.896 332.238 101.182 332.514 101.375C332.791 101.568 333.143 101.665 333.571 101.665ZM339.713 103V94.2727H341.707V95.7273H341.798C341.957 95.2235 342.23 94.8352 342.616 94.5625C343.007 94.286 343.452 94.1477 343.952 94.1477C344.065 94.1477 344.192 94.1534 344.332 94.1648C344.476 94.1723 344.596 94.1856 344.69 94.2045V96.0966C344.603 96.0663 344.465 96.0398 344.276 96.017C344.09 95.9905 343.91 95.9773 343.736 95.9773C343.361 95.9773 343.024 96.0587 342.724 96.2216C342.429 96.3807 342.196 96.6023 342.026 96.8864C341.855 97.1705 341.77 97.4981 341.77 97.8693V103H339.713Z" fill="black"/>
<path d="M194.53 452.47C194.237 452.177 193.763 452.177 193.47 452.47L188.697 457.243C188.404 457.536 188.404 458.01 188.697 458.303C188.99 458.596 189.464 458.596 189.757 458.303L194 454.061L198.243 458.303C198.536 458.596 199.01 458.596 199.303 458.303C199.596 458.01 199.596 457.536 199.303 457.243L194.53 452.47ZM194.75 517.008V453H193.25V517.008H194.75Z" fill="black"/>
<path d="M195 360.008C197.209 360.008 199 358.217 199 356.008C199 353.799 197.209 352.008 195 352.008C192.791 352.008 191 353.799 191 356.008C191 358.217 192.791 360.008 195 360.008ZM195.75 384.008V356.008H194.25V384.008H195.75Z" fill="black"/>
<path d="M321 360C323.209 360 325 358.209 325 356C325 353.791 323.209 352 321 352C318.791 352 317 353.791 317 356C317 358.209 318.791 360 321 360ZM321.75 384V356H320.25V384H321.75Z" fill="black"/>
<path d="M460 360C462.209 360 464 358.209 464 356C464 353.791 462.209 352 460 352C457.791 352 456 353.791 456 356C456 358.209 457.791 360 460 360ZM460.75 384V356H459.25V384H460.75Z" fill="black"/>
<path d="M327.53 452.47C327.237 452.177 326.763 452.177 326.47 452.47L321.697 457.243C321.404 457.536 321.404 458.01 321.697 458.303C321.99 458.596 322.464 458.596 322.757 458.303L327 454.061L331.243 458.303C331.536 458.596 332.01 458.596 332.303 458.303C332.596 458.01 332.596 457.536 332.303 457.243L327.53 452.47ZM327.75 517.008V453H326.25V517.008H327.75Z" fill="black"/>
<path d="M460.53 452.47C460.237 452.177 459.763 452.177 459.47 452.47L454.697 457.243C454.404 457.536 454.404 458.01 454.697 458.303C454.99 458.596 455.464 458.596 455.757 458.303L460 454.061L464.243 458.303C464.536 458.596 465.01 458.596 465.303 458.303C465.596 458.01 465.596 457.536 465.303 457.243L460.53 452.47ZM460.75 517.008V453H459.25V517.008H460.75Z" fill="black"/>
<path d="M320.96 226.534C320.706 226.28 320.294 226.28 320.04 226.534L315.904 230.67C315.65 230.924 315.65 231.336 315.904 231.59C316.158 231.843 316.569 231.843 316.823 231.59L320.5 227.913L324.177 231.59C324.431 231.843 324.842 231.843 325.096 231.59C325.35 231.336 325.35 230.924 325.096 230.67L320.96 226.534ZM321.15 264.007V226.993H319.85V264.007H321.15Z" fill="black"/>
<path d="M321.46 326.554C321.206 326.3 320.794 326.3 320.54 326.554L316.404 330.69C316.15 330.944 316.15 331.356 316.404 331.61C316.658 331.863 317.069 331.863 317.323 331.61L321 327.933L324.677 331.61C324.931 331.863 325.342 331.863 325.596 331.61C325.85 331.356 325.85 330.944 325.596 330.69L321.46 326.554ZM321.65 354.013V327.013H320.35V354.013H321.65Z" fill="black"/>
<path d="M321.46 126.54C321.206 126.286 320.794 126.286 320.54 126.54L316.404 130.677C316.15 130.931 316.15 131.342 316.404 131.596C316.658 131.85 317.069 131.85 317.323 131.596L321 127.919L324.677 131.596C324.931 131.85 325.342 131.85 325.596 131.596C325.85 131.342 325.85 130.931 325.596 130.677L321.46 126.54ZM321.65 164.013V127H320.35V164.013H321.65Z" fill="black"/>
<path d="M321.46 26.5403C321.206 26.2865 320.794 26.2865 320.54 26.5403L316.404 30.6769C316.15 30.9307 316.15 31.3423 316.404 31.5961C316.658 31.8499 317.069 31.8499 317.323 31.5961L321 27.9192L324.677 31.5961C324.931 31.8499 325.342 31.8499 325.596 31.5961C325.85 31.3423 325.85 30.9307 325.596 30.6769L321.46 26.5403ZM321.65 64.0134V26.9999H320.35V64.0134H321.65Z" fill="black"/>
<line x1="195" y1="355.5" x2="461" y2="355.5" stroke="black"/>
</svg>
