<svg width="756" height="370" viewBox="0 0 756 370" fill="none" xmlns="http://www.w3.org/2000/svg">
<rect width="756" height="370" fill="white"/>
<line x1="410" y1="249" x2="410" y2="102" stroke="black" stroke-width="2" stroke-dasharray="5 5"/>
<path d="M35.7803 49.4697C35.4874 49.1768 35.0126 49.1768 34.7197 49.4697L29.9467 54.2426C29.6538 54.5355 29.6538 55.0104 29.9467 55.3033C30.2396 55.5962 30.7145 55.5962 31.0074 55.3033L35.25 51.0607L39.4926 55.3033C39.7855 55.5962 40.2604 55.5962 40.5533 55.3033C40.8462 55.0104 40.8462 54.5355 40.5533 54.2426L35.7803 49.4697ZM36 329L36 50H34.5L34.5 329H36Z" fill="black"/>
<path d="M714.53 328.78C714.823 328.487 714.823 328.013 714.53 327.72L709.757 322.947C709.464 322.654 708.99 322.654 708.697 322.947C708.404 323.24 708.404 323.714 708.697 324.007L712.939 328.25L708.697 332.493C708.404 332.786 708.404 333.26 708.697 333.553C708.99 333.846 709.464 333.846 709.757 333.553L714.53 328.78ZM36 329H714V327.5H36V329Z" fill="black"/>
<line x1="549" y1="284" x2="549" y2="181" stroke="black" stroke-width="2" stroke-dasharray="5 5"/>
<line x1="688" y1="328" x2="688" y2="247" stroke="black" stroke-width="2" stroke-dasharray="5 5"/>
<rect x="68" y="62" width="204" height="40" fill="#94FFAC"/>
<rect x="68" y="148" width="343" height="40" fill="#FFE594"/>
<rect x="68" y="244" width="482" height="40" fill="#E5F1FD"/>
<rect x="272" y="62" width="139" height="40" fill="#0D481E"/>
<rect x="411" y="148" width="139" height="40" fill="#493B0E"/>
<rect x="550" y="244" width="139" height="40" fill="#142C47"/>
<path d="M88.7223 77.1307V75.3636H98.0064V77.1307H94.4098V87H92.3189V77.1307H88.7223ZM98.799 87V78.2727H100.793V79.7273H100.884C101.043 79.2235 101.316 78.8352 101.702 78.5625C102.093 78.286 102.538 78.1477 103.038 78.1477C103.151 78.1477 103.278 78.1534 103.418 78.1648C103.562 78.1723 103.682 78.1856 103.776 78.2045V80.0966C103.689 80.0663 103.551 80.0398 103.362 80.017C103.176 79.9905 102.996 79.9773 102.822 79.9773C102.447 79.9773 102.11 80.0587 101.81 80.2216C101.515 80.3807 101.282 80.6023 101.112 80.8864C100.941 81.1705 100.856 81.4981 100.856 81.8693V87H98.799ZM107.498 87.1761C106.945 87.1761 106.447 87.0777 106.004 86.8807C105.564 86.6799 105.216 86.3845 104.958 85.9943C104.704 85.6042 104.577 85.1231 104.577 84.5511C104.577 84.0587 104.668 83.6515 104.85 83.3295C105.032 83.0076 105.28 82.75 105.594 82.5568C105.909 82.3636 106.263 82.2178 106.657 82.1193C107.055 82.017 107.466 81.9432 107.89 81.8977C108.401 81.8447 108.816 81.7973 109.134 81.7557C109.452 81.7102 109.683 81.642 109.827 81.5511C109.975 81.4564 110.049 81.3106 110.049 81.1136V81.0795C110.049 80.6515 109.922 80.3201 109.668 80.0852C109.415 79.8504 109.049 79.733 108.572 79.733C108.068 79.733 107.668 79.8428 107.373 80.0625C107.081 80.2822 106.884 80.5417 106.782 80.8409L104.862 80.5682C105.013 80.0379 105.263 79.5947 105.612 79.2386C105.96 78.8788 106.386 78.6098 106.89 78.4318C107.394 78.25 107.951 78.1591 108.56 78.1591C108.981 78.1591 109.399 78.2083 109.816 78.3068C110.233 78.4053 110.613 78.5682 110.958 78.7955C111.303 79.0189 111.579 79.3239 111.788 79.7102C112 80.0966 112.106 80.5795 112.106 81.1591V87H110.129V85.8011H110.06C109.935 86.0436 109.759 86.2708 109.532 86.483C109.308 86.6913 109.026 86.8598 108.685 86.9886C108.348 87.1136 107.952 87.1761 107.498 87.1761ZM108.032 85.6648C108.445 85.6648 108.803 85.5833 109.106 85.4205C109.409 85.2538 109.642 85.0341 109.805 84.7614C109.971 84.4886 110.055 84.1913 110.055 83.8693V82.8409C109.99 82.8939 109.88 82.9432 109.725 82.9886C109.574 83.0341 109.403 83.0739 109.214 83.108C109.024 83.142 108.837 83.1723 108.651 83.1989C108.466 83.2254 108.305 83.2481 108.168 83.267C107.862 83.3087 107.587 83.3769 107.344 83.4716C107.102 83.5663 106.911 83.6989 106.771 83.8693C106.63 84.036 106.56 84.2519 106.56 84.517C106.56 84.8958 106.699 85.1818 106.975 85.375C107.252 85.5682 107.604 85.6648 108.032 85.6648ZM114.174 87V78.2727H116.231V87H114.174ZM115.208 77.0341C114.882 77.0341 114.602 76.9261 114.367 76.7102C114.132 76.4905 114.015 76.2273 114.015 75.9205C114.015 75.6098 114.132 75.3466 114.367 75.1307C114.602 74.911 114.882 74.8011 115.208 74.8011C115.538 74.8011 115.818 74.911 116.049 75.1307C116.284 75.3466 116.401 75.6098 116.401 75.9205C116.401 76.2273 116.284 76.4905 116.049 76.7102C115.818 76.9261 115.538 77.0341 115.208 77.0341ZM120.403 81.8864V87H118.346V78.2727H120.312V79.7557H120.414C120.615 79.267 120.935 78.8788 121.374 78.5909C121.817 78.303 122.365 78.1591 123.016 78.1591C123.619 78.1591 124.143 78.2879 124.59 78.5455C125.041 78.803 125.389 79.1761 125.636 79.6648C125.886 80.1534 126.009 80.7462 126.005 81.4432V87H123.948V81.7614C123.948 81.178 123.797 80.7216 123.494 80.392C123.194 80.0625 122.78 79.8977 122.249 79.8977C121.889 79.8977 121.569 79.9773 121.289 80.1364C121.013 80.2917 120.795 80.517 120.636 80.8125C120.48 81.108 120.403 81.4659 120.403 81.8864ZM128.096 87V78.2727H130.153V87H128.096ZM129.13 77.0341C128.804 77.0341 128.524 76.9261 128.289 76.7102C128.054 76.4905 127.937 76.2273 127.937 75.9205C127.937 75.6098 128.054 75.3466 128.289 75.1307C128.524 74.911 128.804 74.8011 129.13 74.8011C129.46 74.8011 129.74 74.911 129.971 75.1307C130.206 75.3466 130.323 75.6098 130.323 75.9205C130.323 76.2273 130.206 76.4905 129.971 76.7102C129.74 76.9261 129.46 77.0341 129.13 77.0341ZM134.325 81.8864V87H132.268V78.2727H134.234V79.7557H134.336C134.537 79.267 134.857 78.8788 135.296 78.5909C135.739 78.303 136.287 78.1591 136.938 78.1591C137.54 78.1591 138.065 78.2879 138.512 78.5455C138.963 78.803 139.311 79.1761 139.558 79.6648C139.808 80.1534 139.931 80.7462 139.927 81.4432V87H137.87V81.7614C137.87 81.178 137.719 80.7216 137.415 80.392C137.116 80.0625 136.701 79.8977 136.171 79.8977C135.811 79.8977 135.491 79.9773 135.211 80.1364C134.934 80.2917 134.717 80.517 134.558 80.8125C134.402 81.108 134.325 81.4659 134.325 81.8864ZM145.813 90.4545C145.075 90.4545 144.44 90.3542 143.91 90.1534C143.379 89.9564 142.953 89.6913 142.631 89.358C142.309 89.0246 142.086 88.6553 141.961 88.25L143.813 87.8011C143.897 87.9716 144.018 88.1402 144.177 88.3068C144.336 88.4773 144.55 88.6174 144.819 88.7273C145.092 88.8409 145.434 88.8977 145.847 88.8977C146.431 88.8977 146.914 88.7557 147.296 88.4716C147.679 88.1913 147.87 87.7292 147.87 87.0852V85.4318H147.768C147.662 85.6439 147.506 85.8617 147.302 86.0852C147.101 86.3087 146.834 86.4962 146.501 86.6477C146.171 86.7992 145.756 86.875 145.256 86.875C144.586 86.875 143.978 86.7178 143.433 86.4034C142.891 86.0852 142.459 85.6117 142.137 84.983C141.819 84.3504 141.66 83.5587 141.66 82.608C141.66 81.6496 141.819 80.8409 142.137 80.1818C142.459 79.5189 142.893 79.017 143.438 78.6761C143.984 78.3314 144.592 78.1591 145.262 78.1591C145.773 78.1591 146.194 78.2462 146.523 78.4205C146.857 78.5909 147.122 78.7973 147.319 79.0398C147.516 79.2784 147.665 79.5038 147.768 79.7159H147.881V78.2727H149.91V87.142C149.91 87.8883 149.732 88.5057 149.376 88.9943C149.02 89.483 148.533 89.8485 147.915 90.0909C147.298 90.3333 146.597 90.4545 145.813 90.4545ZM145.83 85.2614C146.266 85.2614 146.637 85.1553 146.944 84.9432C147.251 84.7311 147.484 84.4261 147.643 84.0284C147.802 83.6307 147.881 83.1534 147.881 82.5966C147.881 82.0473 147.802 81.5663 147.643 81.1534C147.487 80.7405 147.256 80.4205 146.95 80.1932C146.647 79.9621 146.273 79.8466 145.83 79.8466C145.372 79.8466 144.989 79.9659 144.683 80.2045C144.376 80.4432 144.145 80.7708 143.989 81.1875C143.834 81.6004 143.756 82.0701 143.756 82.5966C143.756 83.1307 143.834 83.5985 143.989 84C144.148 84.3977 144.381 84.7083 144.688 84.9318C144.999 85.1515 145.379 85.2614 145.83 85.2614ZM160.021 87H156.077V75.3636H160.1C161.255 75.3636 162.248 75.5966 163.077 76.0625C163.911 76.5246 164.551 77.1894 164.998 78.0568C165.445 78.9242 165.668 79.9621 165.668 81.1705C165.668 82.3826 165.443 83.4242 164.992 84.2955C164.545 85.1667 163.899 85.8352 163.055 86.3011C162.214 86.767 161.202 87 160.021 87ZM158.185 85.1761H159.918C160.729 85.1761 161.405 85.0284 161.947 84.733C162.488 84.4337 162.896 83.9886 163.168 83.3977C163.441 82.803 163.577 82.0606 163.577 81.1705C163.577 80.2803 163.441 79.5417 163.168 78.9545C162.896 78.3636 162.492 77.9223 161.958 77.6307C161.428 77.3352 160.769 77.1875 159.981 77.1875H158.185V85.1761ZM170.092 87.1761C169.539 87.1761 169.04 87.0777 168.597 86.8807C168.158 86.6799 167.809 86.3845 167.552 85.9943C167.298 85.6042 167.171 85.1231 167.171 84.5511C167.171 84.0587 167.262 83.6515 167.444 83.3295C167.626 83.0076 167.874 82.75 168.188 82.5568C168.503 82.3636 168.857 82.2178 169.251 82.1193C169.648 82.017 170.059 81.9432 170.484 81.8977C170.995 81.8447 171.41 81.7973 171.728 81.7557C172.046 81.7102 172.277 81.642 172.421 81.5511C172.569 81.4564 172.643 81.3106 172.643 81.1136V81.0795C172.643 80.6515 172.516 80.3201 172.262 80.0852C172.008 79.8504 171.643 79.733 171.165 79.733C170.662 79.733 170.262 79.8428 169.967 80.0625C169.675 80.2822 169.478 80.5417 169.376 80.8409L167.455 80.5682C167.607 80.0379 167.857 79.5947 168.205 79.2386C168.554 78.8788 168.98 78.6098 169.484 78.4318C169.987 78.25 170.544 78.1591 171.154 78.1591C171.575 78.1591 171.993 78.2083 172.41 78.3068C172.826 78.4053 173.207 78.5682 173.552 78.7955C173.897 79.0189 174.173 79.3239 174.381 79.7102C174.594 80.0966 174.7 80.5795 174.7 81.1591V87H172.722V85.8011H172.654C172.529 86.0436 172.353 86.2708 172.126 86.483C171.902 86.6913 171.62 86.8598 171.279 86.9886C170.942 87.1136 170.546 87.1761 170.092 87.1761ZM170.626 85.6648C171.039 85.6648 171.397 85.5833 171.7 85.4205C172.003 85.2538 172.236 85.0341 172.398 84.7614C172.565 84.4886 172.648 84.1913 172.648 83.8693V82.8409C172.584 82.8939 172.474 82.9432 172.319 82.9886C172.167 83.0341 171.997 83.0739 171.808 83.108C171.618 83.142 171.431 83.1723 171.245 83.1989C171.059 83.2254 170.898 83.2481 170.762 83.267C170.455 83.3087 170.181 83.3769 169.938 83.4716C169.696 83.5663 169.504 83.6989 169.364 83.8693C169.224 84.036 169.154 84.2519 169.154 84.517C169.154 84.8958 169.292 85.1818 169.569 85.375C169.845 85.5682 170.198 85.6648 170.626 85.6648ZM181.126 78.2727V79.8636H176.109V78.2727H181.126ZM177.347 76.1818H179.404V84.375C179.404 84.6515 179.446 84.8636 179.529 85.0114C179.616 85.1553 179.73 85.2538 179.87 85.3068C180.01 85.3598 180.165 85.3864 180.336 85.3864C180.465 85.3864 180.582 85.3769 180.688 85.358C180.798 85.339 180.881 85.322 180.938 85.3068L181.285 86.9148C181.175 86.9527 181.018 86.9943 180.813 87.0398C180.612 87.0852 180.366 87.1117 180.075 87.1193C179.559 87.1345 179.095 87.0568 178.683 86.8864C178.27 86.7121 177.942 86.4432 177.7 86.0795C177.461 85.7159 177.344 85.2614 177.347 84.7159V76.1818ZM185.357 87.1761C184.804 87.1761 184.306 87.0777 183.863 86.8807C183.424 86.6799 183.075 86.3845 182.817 85.9943C182.564 85.6042 182.437 85.1231 182.437 84.5511C182.437 84.0587 182.528 83.6515 182.71 83.3295C182.891 83.0076 183.139 82.75 183.454 82.5568C183.768 82.3636 184.122 82.2178 184.516 82.1193C184.914 82.017 185.325 81.9432 185.749 81.8977C186.261 81.8447 186.675 81.7973 186.994 81.7557C187.312 81.7102 187.543 81.642 187.687 81.5511C187.835 81.4564 187.908 81.3106 187.908 81.1136V81.0795C187.908 80.6515 187.781 80.3201 187.528 80.0852C187.274 79.8504 186.908 79.733 186.431 79.733C185.927 79.733 185.528 79.8428 185.232 80.0625C184.941 80.2822 184.744 80.5417 184.641 80.8409L182.721 80.5682C182.872 80.0379 183.122 79.5947 183.471 79.2386C183.819 78.8788 184.246 78.6098 184.749 78.4318C185.253 78.25 185.81 78.1591 186.42 78.1591C186.84 78.1591 187.259 78.2083 187.675 78.3068C188.092 78.4053 188.473 78.5682 188.817 78.7955C189.162 79.0189 189.439 79.3239 189.647 79.7102C189.859 80.0966 189.965 80.5795 189.965 81.1591V87H187.988V85.8011H187.92C187.795 86.0436 187.619 86.2708 187.391 86.483C187.168 86.6913 186.886 86.8598 186.545 86.9886C186.208 87.1136 185.812 87.1761 185.357 87.1761ZM185.891 85.6648C186.304 85.6648 186.662 85.5833 186.965 85.4205C187.268 85.2538 187.501 85.0341 187.664 84.7614C187.831 84.4886 187.914 84.1913 187.914 83.8693V82.8409C187.85 82.8939 187.74 82.9432 187.585 82.9886C187.433 83.0341 187.263 83.0739 187.073 83.108C186.884 83.142 186.696 83.1723 186.511 83.1989C186.325 83.2254 186.164 83.2481 186.028 83.267C185.721 83.3087 185.446 83.3769 185.204 83.4716C184.961 83.5663 184.77 83.6989 184.63 83.8693C184.49 84.036 184.42 84.2519 184.42 84.517C184.42 84.8958 184.558 85.1818 184.835 85.375C185.111 85.5682 185.463 85.6648 185.891 85.6648ZM196.513 81.1818C196.513 79.7614 196.701 78.4564 197.076 77.267C197.455 76.0739 198.017 74.9716 198.763 73.9602H200.701C200.413 74.3352 200.144 74.7955 199.894 75.3409C199.644 75.8826 199.426 76.4773 199.241 77.125C199.059 77.7689 198.915 78.4375 198.809 79.1307C198.707 79.8239 198.656 80.5076 198.656 81.1818C198.656 82.0795 198.745 82.9886 198.923 83.9091C199.104 84.8295 199.349 85.6837 199.656 86.4716C199.966 87.2557 200.315 87.8977 200.701 88.3977H198.763C198.017 87.3864 197.455 86.286 197.076 85.0966C196.701 83.9034 196.513 82.5985 196.513 81.1818ZM202.39 87V75.3636H209.844V77.1307H204.498V80.2898H209.333V82.0568H204.498V87H202.39ZM214.84 87.1705C213.988 87.1705 213.249 86.983 212.624 86.608C211.999 86.233 211.514 85.7083 211.17 85.0341C210.829 84.3598 210.658 83.572 210.658 82.6705C210.658 81.7689 210.829 80.9792 211.17 80.3011C211.514 79.6231 211.999 79.0966 212.624 78.7216C213.249 78.3466 213.988 78.1591 214.84 78.1591C215.692 78.1591 216.431 78.3466 217.056 78.7216C217.681 79.0966 218.164 79.6231 218.505 80.3011C218.85 80.9792 219.022 81.7689 219.022 82.6705C219.022 83.572 218.85 84.3598 218.505 85.0341C218.164 85.7083 217.681 86.233 217.056 86.608C216.431 86.983 215.692 87.1705 214.84 87.1705ZM214.852 85.5227C215.314 85.5227 215.7 85.3958 216.011 85.142C216.321 84.8845 216.552 84.5398 216.704 84.108C216.859 83.6761 216.937 83.1951 216.937 82.6648C216.937 82.1307 216.859 81.6477 216.704 81.2159C216.552 80.7803 216.321 80.4337 216.011 80.1761C215.7 79.9186 215.314 79.7898 214.852 79.7898C214.378 79.7898 213.984 79.9186 213.67 80.1761C213.359 80.4337 213.126 80.7803 212.971 81.2159C212.819 81.6477 212.744 82.1307 212.744 82.6648C212.744 83.1951 212.819 83.6761 212.971 84.108C213.126 84.5398 213.359 84.8845 213.67 85.142C213.984 85.3958 214.378 85.5227 214.852 85.5227ZM222.825 75.3636V87H220.768V75.3636H222.825ZM228.178 87.1534C227.493 87.1534 226.879 86.9773 226.337 86.625C225.796 86.2727 225.368 85.7614 225.053 85.0909C224.739 84.4205 224.582 83.6061 224.582 82.6477C224.582 81.678 224.741 80.8598 225.059 80.1932C225.381 79.5227 225.815 79.017 226.36 78.6761C226.906 78.3314 227.513 78.1591 228.184 78.1591C228.695 78.1591 229.116 78.2462 229.445 78.4205C229.775 78.5909 230.036 78.7973 230.229 79.0398C230.423 79.2784 230.572 79.5038 230.678 79.7159H230.763V75.3636H232.826V87H230.803V85.625H230.678C230.572 85.8371 230.419 86.0625 230.218 86.3011C230.017 86.536 229.752 86.7367 229.423 86.9034C229.093 87.0701 228.678 87.1534 228.178 87.1534ZM228.752 85.4659C229.188 85.4659 229.559 85.3485 229.866 85.1136C230.173 84.875 230.406 84.5436 230.565 84.1193C230.724 83.6951 230.803 83.2008 230.803 82.6364C230.803 82.072 230.724 81.5814 230.565 81.1648C230.409 80.7481 230.178 80.4242 229.871 80.1932C229.568 79.9621 229.195 79.8466 228.752 79.8466C228.294 79.8466 227.911 79.9659 227.604 80.2045C227.298 80.4432 227.067 80.7727 226.911 81.1932C226.756 81.6136 226.678 82.0947 226.678 82.6364C226.678 83.1818 226.756 83.6686 226.911 84.0966C227.07 84.5208 227.303 84.8561 227.61 85.1023C227.921 85.3447 228.301 85.4659 228.752 85.4659ZM243.697 75.3636V87H241.589V77.4148H241.521L238.799 79.1534V77.2216L241.691 75.3636H243.697ZM250.344 81.1818C250.344 82.5985 250.155 83.9034 249.776 85.0966C249.401 86.286 248.841 87.3864 248.094 88.3977H246.157C246.449 88.0227 246.718 87.5644 246.964 87.0227C247.214 86.4811 247.43 85.8864 247.612 85.2386C247.797 84.5909 247.941 83.9205 248.043 83.2273C248.149 82.5341 248.202 81.8523 248.202 81.1818C248.202 80.2841 248.112 79.375 247.93 78.4545C247.752 77.5341 247.507 76.6799 247.197 75.892C246.89 75.1042 246.543 74.4602 246.157 73.9602H248.094C248.841 74.9716 249.401 76.0739 249.776 77.267C250.155 78.4564 250.344 79.7614 250.344 81.1818Z" fill="black"/>
<path d="M157.097 163.131V161.364H166.381V163.131H162.785V173H160.694V163.131H157.097ZM167.174 173V164.273H169.168V165.727H169.259C169.418 165.223 169.691 164.835 170.077 164.562C170.468 164.286 170.913 164.148 171.413 164.148C171.526 164.148 171.653 164.153 171.793 164.165C171.937 164.172 172.057 164.186 172.151 164.205V166.097C172.064 166.066 171.926 166.04 171.737 166.017C171.551 165.991 171.371 165.977 171.197 165.977C170.822 165.977 170.485 166.059 170.185 166.222C169.89 166.381 169.657 166.602 169.487 166.886C169.316 167.17 169.231 167.498 169.231 167.869V173H167.174ZM175.873 173.176C175.32 173.176 174.822 173.078 174.379 172.881C173.939 172.68 173.591 172.384 173.333 171.994C173.079 171.604 172.952 171.123 172.952 170.551C172.952 170.059 173.043 169.652 173.225 169.33C173.407 169.008 173.655 168.75 173.969 168.557C174.284 168.364 174.638 168.218 175.032 168.119C175.43 168.017 175.841 167.943 176.265 167.898C176.776 167.845 177.191 167.797 177.509 167.756C177.827 167.71 178.058 167.642 178.202 167.551C178.35 167.456 178.424 167.311 178.424 167.114V167.08C178.424 166.652 178.297 166.32 178.043 166.085C177.79 165.85 177.424 165.733 176.947 165.733C176.443 165.733 176.043 165.843 175.748 166.062C175.456 166.282 175.259 166.542 175.157 166.841L173.237 166.568C173.388 166.038 173.638 165.595 173.987 165.239C174.335 164.879 174.761 164.61 175.265 164.432C175.769 164.25 176.326 164.159 176.935 164.159C177.356 164.159 177.774 164.208 178.191 164.307C178.608 164.405 178.988 164.568 179.333 164.795C179.678 165.019 179.954 165.324 180.163 165.71C180.375 166.097 180.481 166.58 180.481 167.159V173H178.504V171.801H178.435C178.31 172.044 178.134 172.271 177.907 172.483C177.683 172.691 177.401 172.86 177.06 172.989C176.723 173.114 176.327 173.176 175.873 173.176ZM176.407 171.665C176.82 171.665 177.178 171.583 177.481 171.42C177.784 171.254 178.017 171.034 178.18 170.761C178.346 170.489 178.43 170.191 178.43 169.869V168.841C178.365 168.894 178.255 168.943 178.1 168.989C177.949 169.034 177.778 169.074 177.589 169.108C177.399 169.142 177.212 169.172 177.026 169.199C176.841 169.225 176.68 169.248 176.543 169.267C176.237 169.309 175.962 169.377 175.719 169.472C175.477 169.566 175.286 169.699 175.146 169.869C175.005 170.036 174.935 170.252 174.935 170.517C174.935 170.896 175.074 171.182 175.35 171.375C175.627 171.568 175.979 171.665 176.407 171.665ZM182.549 173V164.273H184.606V173H182.549ZM183.583 163.034C183.257 163.034 182.977 162.926 182.742 162.71C182.507 162.491 182.39 162.227 182.39 161.92C182.39 161.61 182.507 161.347 182.742 161.131C182.977 160.911 183.257 160.801 183.583 160.801C183.913 160.801 184.193 160.911 184.424 161.131C184.659 161.347 184.776 161.61 184.776 161.92C184.776 162.227 184.659 162.491 184.424 162.71C184.193 162.926 183.913 163.034 183.583 163.034ZM188.778 167.886V173H186.721V164.273H188.687V165.756H188.789C188.99 165.267 189.31 164.879 189.749 164.591C190.192 164.303 190.74 164.159 191.391 164.159C191.994 164.159 192.518 164.288 192.965 164.545C193.416 164.803 193.764 165.176 194.011 165.665C194.261 166.153 194.384 166.746 194.38 167.443V173H192.323V167.761C192.323 167.178 192.172 166.722 191.869 166.392C191.569 166.062 191.155 165.898 190.624 165.898C190.264 165.898 189.944 165.977 189.664 166.136C189.388 166.292 189.17 166.517 189.011 166.812C188.855 167.108 188.778 167.466 188.778 167.886ZM196.471 173V164.273H198.528V173H196.471ZM197.505 163.034C197.179 163.034 196.899 162.926 196.664 162.71C196.429 162.491 196.312 162.227 196.312 161.92C196.312 161.61 196.429 161.347 196.664 161.131C196.899 160.911 197.179 160.801 197.505 160.801C197.835 160.801 198.115 160.911 198.346 161.131C198.581 161.347 198.698 161.61 198.698 161.92C198.698 162.227 198.581 162.491 198.346 162.71C198.115 162.926 197.835 163.034 197.505 163.034ZM202.7 167.886V173H200.643V164.273H202.609V165.756H202.711C202.912 165.267 203.232 164.879 203.671 164.591C204.114 164.303 204.662 164.159 205.313 164.159C205.915 164.159 206.44 164.288 206.887 164.545C207.338 164.803 207.686 165.176 207.933 165.665C208.183 166.153 208.306 166.746 208.302 167.443V173H206.245V167.761C206.245 167.178 206.094 166.722 205.79 166.392C205.491 166.062 205.076 165.898 204.546 165.898C204.186 165.898 203.866 165.977 203.586 166.136C203.309 166.292 203.092 166.517 202.933 166.812C202.777 167.108 202.7 167.466 202.7 167.886ZM214.188 176.455C213.45 176.455 212.815 176.354 212.285 176.153C211.754 175.956 211.328 175.691 211.006 175.358C210.684 175.025 210.461 174.655 210.336 174.25L212.188 173.801C212.272 173.972 212.393 174.14 212.552 174.307C212.711 174.477 212.925 174.617 213.194 174.727C213.467 174.841 213.809 174.898 214.222 174.898C214.806 174.898 215.289 174.756 215.671 174.472C216.054 174.191 216.245 173.729 216.245 173.085V171.432H216.143C216.037 171.644 215.881 171.862 215.677 172.085C215.476 172.309 215.209 172.496 214.876 172.648C214.546 172.799 214.131 172.875 213.631 172.875C212.961 172.875 212.353 172.718 211.808 172.403C211.266 172.085 210.834 171.612 210.512 170.983C210.194 170.35 210.035 169.559 210.035 168.608C210.035 167.65 210.194 166.841 210.512 166.182C210.834 165.519 211.268 165.017 211.813 164.676C212.359 164.331 212.967 164.159 213.637 164.159C214.148 164.159 214.569 164.246 214.898 164.42C215.232 164.591 215.497 164.797 215.694 165.04C215.891 165.278 216.04 165.504 216.143 165.716H216.256V164.273H218.285V173.142C218.285 173.888 218.107 174.506 217.751 174.994C217.395 175.483 216.908 175.848 216.29 176.091C215.673 176.333 214.972 176.455 214.188 176.455ZM214.205 171.261C214.641 171.261 215.012 171.155 215.319 170.943C215.626 170.731 215.859 170.426 216.018 170.028C216.177 169.631 216.256 169.153 216.256 168.597C216.256 168.047 216.177 167.566 216.018 167.153C215.862 166.741 215.631 166.42 215.325 166.193C215.022 165.962 214.648 165.847 214.205 165.847C213.747 165.847 213.364 165.966 213.058 166.205C212.751 166.443 212.52 166.771 212.364 167.188C212.209 167.6 212.131 168.07 212.131 168.597C212.131 169.131 212.209 169.598 212.364 170C212.523 170.398 212.756 170.708 213.063 170.932C213.374 171.152 213.754 171.261 214.205 171.261ZM228.396 173H224.452V161.364H228.475C229.63 161.364 230.623 161.597 231.452 162.062C232.286 162.525 232.926 163.189 233.373 164.057C233.82 164.924 234.043 165.962 234.043 167.17C234.043 168.383 233.818 169.424 233.367 170.295C232.92 171.167 232.274 171.835 231.43 172.301C230.589 172.767 229.577 173 228.396 173ZM226.56 171.176H228.293C229.104 171.176 229.78 171.028 230.322 170.733C230.863 170.434 231.271 169.989 231.543 169.398C231.816 168.803 231.952 168.061 231.952 167.17C231.952 166.28 231.816 165.542 231.543 164.955C231.271 164.364 230.867 163.922 230.333 163.631C229.803 163.335 229.144 163.188 228.356 163.188H226.56V171.176ZM238.467 173.176C237.914 173.176 237.415 173.078 236.972 172.881C236.533 172.68 236.184 172.384 235.927 171.994C235.673 171.604 235.546 171.123 235.546 170.551C235.546 170.059 235.637 169.652 235.819 169.33C236.001 169.008 236.249 168.75 236.563 168.557C236.878 168.364 237.232 168.218 237.626 168.119C238.023 168.017 238.434 167.943 238.859 167.898C239.37 167.845 239.785 167.797 240.103 167.756C240.421 167.71 240.652 167.642 240.796 167.551C240.944 167.456 241.018 167.311 241.018 167.114V167.08C241.018 166.652 240.891 166.32 240.637 166.085C240.383 165.85 240.018 165.733 239.54 165.733C239.037 165.733 238.637 165.843 238.342 166.062C238.05 166.282 237.853 166.542 237.751 166.841L235.83 166.568C235.982 166.038 236.232 165.595 236.58 165.239C236.929 164.879 237.355 164.61 237.859 164.432C238.362 164.25 238.919 164.159 239.529 164.159C239.95 164.159 240.368 164.208 240.785 164.307C241.201 164.405 241.582 164.568 241.927 164.795C242.272 165.019 242.548 165.324 242.756 165.71C242.969 166.097 243.075 166.58 243.075 167.159V173H241.097V171.801H241.029C240.904 172.044 240.728 172.271 240.501 172.483C240.277 172.691 239.995 172.86 239.654 172.989C239.317 173.114 238.921 173.176 238.467 173.176ZM239.001 171.665C239.414 171.665 239.772 171.583 240.075 171.42C240.378 171.254 240.611 171.034 240.773 170.761C240.94 170.489 241.023 170.191 241.023 169.869V168.841C240.959 168.894 240.849 168.943 240.694 168.989C240.542 169.034 240.372 169.074 240.183 169.108C239.993 169.142 239.806 169.172 239.62 169.199C239.434 169.225 239.273 169.248 239.137 169.267C238.83 169.309 238.556 169.377 238.313 169.472C238.071 169.566 237.879 169.699 237.739 169.869C237.599 170.036 237.529 170.252 237.529 170.517C237.529 170.896 237.667 171.182 237.944 171.375C238.22 171.568 238.573 171.665 239.001 171.665ZM249.501 164.273V165.864H244.484V164.273H249.501ZM245.722 162.182H247.779V170.375C247.779 170.652 247.821 170.864 247.904 171.011C247.991 171.155 248.105 171.254 248.245 171.307C248.385 171.36 248.54 171.386 248.711 171.386C248.84 171.386 248.957 171.377 249.063 171.358C249.173 171.339 249.256 171.322 249.313 171.307L249.66 172.915C249.55 172.953 249.393 172.994 249.188 173.04C248.987 173.085 248.741 173.112 248.45 173.119C247.934 173.134 247.47 173.057 247.058 172.886C246.645 172.712 246.317 172.443 246.075 172.08C245.836 171.716 245.719 171.261 245.722 170.716V162.182ZM253.732 173.176C253.179 173.176 252.681 173.078 252.238 172.881C251.799 172.68 251.45 172.384 251.192 171.994C250.939 171.604 250.812 171.123 250.812 170.551C250.812 170.059 250.903 169.652 251.085 169.33C251.266 169.008 251.514 168.75 251.829 168.557C252.143 168.364 252.497 168.218 252.891 168.119C253.289 168.017 253.7 167.943 254.124 167.898C254.636 167.845 255.05 167.797 255.369 167.756C255.687 167.71 255.918 167.642 256.062 167.551C256.21 167.456 256.283 167.311 256.283 167.114V167.08C256.283 166.652 256.156 166.32 255.903 166.085C255.649 165.85 255.283 165.733 254.806 165.733C254.302 165.733 253.903 165.843 253.607 166.062C253.316 166.282 253.119 166.542 253.016 166.841L251.096 166.568C251.247 166.038 251.497 165.595 251.846 165.239C252.194 164.879 252.621 164.61 253.124 164.432C253.628 164.25 254.185 164.159 254.795 164.159C255.215 164.159 255.634 164.208 256.05 164.307C256.467 164.405 256.848 164.568 257.192 164.795C257.537 165.019 257.814 165.324 258.022 165.71C258.234 166.097 258.34 166.58 258.34 167.159V173H256.363V171.801H256.295C256.17 172.044 255.994 172.271 255.766 172.483C255.543 172.691 255.261 172.86 254.92 172.989C254.583 173.114 254.187 173.176 253.732 173.176ZM254.266 171.665C254.679 171.665 255.037 171.583 255.34 171.42C255.643 171.254 255.876 171.034 256.039 170.761C256.206 170.489 256.289 170.191 256.289 169.869V168.841C256.225 168.894 256.115 168.943 255.96 168.989C255.808 169.034 255.638 169.074 255.448 169.108C255.259 169.142 255.071 169.172 254.886 169.199C254.7 169.225 254.539 169.248 254.403 169.267C254.096 169.309 253.821 169.377 253.579 169.472C253.336 169.566 253.145 169.699 253.005 169.869C252.865 170.036 252.795 170.252 252.795 170.517C252.795 170.896 252.933 171.182 253.21 171.375C253.486 171.568 253.838 171.665 254.266 171.665ZM264.888 167.182C264.888 165.761 265.076 164.456 265.451 163.267C265.83 162.074 266.392 160.972 267.138 159.96H269.076C268.788 160.335 268.519 160.795 268.269 161.341C268.019 161.883 267.801 162.477 267.616 163.125C267.434 163.769 267.29 164.437 267.184 165.131C267.082 165.824 267.031 166.508 267.031 167.182C267.031 168.08 267.12 168.989 267.298 169.909C267.479 170.83 267.724 171.684 268.031 172.472C268.341 173.256 268.69 173.898 269.076 174.398H267.138C266.392 173.386 265.83 172.286 265.451 171.097C265.076 169.903 264.888 168.598 264.888 167.182ZM270.765 173V161.364H278.219V163.131H272.873V166.29H277.708V168.057H272.873V173H270.765ZM283.215 173.17C282.363 173.17 281.624 172.983 280.999 172.608C280.374 172.233 279.889 171.708 279.545 171.034C279.204 170.36 279.033 169.572 279.033 168.67C279.033 167.769 279.204 166.979 279.545 166.301C279.889 165.623 280.374 165.097 280.999 164.722C281.624 164.347 282.363 164.159 283.215 164.159C284.067 164.159 284.806 164.347 285.431 164.722C286.056 165.097 286.539 165.623 286.88 166.301C287.225 166.979 287.397 167.769 287.397 168.67C287.397 169.572 287.225 170.36 286.88 171.034C286.539 171.708 286.056 172.233 285.431 172.608C284.806 172.983 284.067 173.17 283.215 173.17ZM283.227 171.523C283.689 171.523 284.075 171.396 284.386 171.142C284.696 170.884 284.927 170.54 285.079 170.108C285.234 169.676 285.312 169.195 285.312 168.665C285.312 168.131 285.234 167.648 285.079 167.216C284.927 166.78 284.696 166.434 284.386 166.176C284.075 165.919 283.689 165.79 283.227 165.79C282.753 165.79 282.359 165.919 282.045 166.176C281.734 166.434 281.501 166.78 281.346 167.216C281.194 167.648 281.119 168.131 281.119 168.665C281.119 169.195 281.194 169.676 281.346 170.108C281.501 170.54 281.734 170.884 282.045 171.142C282.359 171.396 282.753 171.523 283.227 171.523ZM291.2 161.364V173H289.143V161.364H291.2ZM296.553 173.153C295.868 173.153 295.254 172.977 294.712 172.625C294.171 172.273 293.743 171.761 293.428 171.091C293.114 170.42 292.957 169.606 292.957 168.648C292.957 167.678 293.116 166.86 293.434 166.193C293.756 165.523 294.19 165.017 294.735 164.676C295.281 164.331 295.888 164.159 296.559 164.159C297.07 164.159 297.491 164.246 297.82 164.42C298.15 164.591 298.411 164.797 298.604 165.04C298.798 165.278 298.947 165.504 299.053 165.716H299.138V161.364H301.201V173H299.178V171.625H299.053C298.947 171.837 298.794 172.062 298.593 172.301C298.392 172.536 298.127 172.737 297.798 172.903C297.468 173.07 297.053 173.153 296.553 173.153ZM297.127 171.466C297.563 171.466 297.934 171.348 298.241 171.114C298.548 170.875 298.781 170.544 298.94 170.119C299.099 169.695 299.178 169.201 299.178 168.636C299.178 168.072 299.099 167.581 298.94 167.165C298.784 166.748 298.553 166.424 298.246 166.193C297.943 165.962 297.57 165.847 297.127 165.847C296.669 165.847 296.286 165.966 295.979 166.205C295.673 166.443 295.442 166.773 295.286 167.193C295.131 167.614 295.053 168.095 295.053 168.636C295.053 169.182 295.131 169.669 295.286 170.097C295.445 170.521 295.678 170.856 295.985 171.102C296.296 171.345 296.676 171.466 297.127 171.466ZM307.339 173V171.477L311.379 167.517C311.765 167.127 312.087 166.78 312.344 166.477C312.602 166.174 312.795 165.881 312.924 165.597C313.053 165.312 313.117 165.009 313.117 164.688C313.117 164.32 313.034 164.006 312.867 163.744C312.701 163.479 312.471 163.275 312.18 163.131C311.888 162.987 311.557 162.915 311.185 162.915C310.803 162.915 310.468 162.994 310.18 163.153C309.892 163.309 309.668 163.53 309.509 163.818C309.354 164.106 309.276 164.449 309.276 164.847H307.271C307.271 164.108 307.439 163.466 307.776 162.92C308.113 162.375 308.577 161.953 309.168 161.653C309.763 161.354 310.445 161.205 311.214 161.205C311.994 161.205 312.68 161.35 313.271 161.642C313.862 161.934 314.32 162.333 314.646 162.841C314.975 163.348 315.14 163.928 315.14 164.58C315.14 165.015 315.057 165.443 314.89 165.864C314.723 166.284 314.43 166.75 314.009 167.261C313.593 167.773 313.007 168.392 312.254 169.119L310.248 171.159V171.239H315.316V173H307.339ZM320.969 167.182C320.969 168.598 320.78 169.903 320.401 171.097C320.026 172.286 319.466 173.386 318.719 174.398H316.782C317.074 174.023 317.343 173.564 317.589 173.023C317.839 172.481 318.055 171.886 318.237 171.239C318.422 170.591 318.566 169.92 318.668 169.227C318.774 168.534 318.827 167.852 318.827 167.182C318.827 166.284 318.737 165.375 318.555 164.455C318.377 163.534 318.132 162.68 317.822 161.892C317.515 161.104 317.168 160.46 316.782 159.96H318.719C319.466 160.972 320.026 162.074 320.401 163.267C320.78 164.456 320.969 165.761 320.969 167.182Z" fill="black"/>
<path d="M243.855 259.131V257.364H253.139V259.131H249.543V269H247.452V259.131H243.855ZM253.932 269V260.273H255.926V261.727H256.017C256.176 261.223 256.449 260.835 256.835 260.562C257.225 260.286 257.67 260.148 258.17 260.148C258.284 260.148 258.411 260.153 258.551 260.165C258.695 260.172 258.814 260.186 258.909 260.205V262.097C258.822 262.066 258.684 262.04 258.494 262.017C258.309 261.991 258.129 261.977 257.955 261.977C257.58 261.977 257.242 262.059 256.943 262.222C256.648 262.381 256.415 262.602 256.244 262.886C256.074 263.17 255.989 263.498 255.989 263.869V269H253.932ZM262.631 269.176C262.078 269.176 261.58 269.078 261.136 268.881C260.697 268.68 260.348 268.384 260.091 267.994C259.837 267.604 259.71 267.123 259.71 266.551C259.71 266.059 259.801 265.652 259.983 265.33C260.165 265.008 260.413 264.75 260.727 264.557C261.042 264.364 261.396 264.218 261.79 264.119C262.188 264.017 262.598 263.943 263.023 263.898C263.534 263.845 263.949 263.797 264.267 263.756C264.585 263.71 264.816 263.642 264.96 263.551C265.108 263.456 265.182 263.311 265.182 263.114V263.08C265.182 262.652 265.055 262.32 264.801 262.085C264.547 261.85 264.182 261.733 263.705 261.733C263.201 261.733 262.801 261.843 262.506 262.062C262.214 262.282 262.017 262.542 261.915 262.841L259.994 262.568C260.146 262.038 260.396 261.595 260.744 261.239C261.093 260.879 261.519 260.61 262.023 260.432C262.527 260.25 263.083 260.159 263.693 260.159C264.114 260.159 264.532 260.208 264.949 260.307C265.366 260.405 265.746 260.568 266.091 260.795C266.436 261.019 266.712 261.324 266.92 261.71C267.133 262.097 267.239 262.58 267.239 263.159V269H265.261V267.801H265.193C265.068 268.044 264.892 268.271 264.665 268.483C264.441 268.691 264.159 268.86 263.818 268.989C263.481 269.114 263.085 269.176 262.631 269.176ZM263.165 267.665C263.578 267.665 263.936 267.583 264.239 267.42C264.542 267.254 264.775 267.034 264.938 266.761C265.104 266.489 265.188 266.191 265.188 265.869V264.841C265.123 264.894 265.013 264.943 264.858 264.989C264.706 265.034 264.536 265.074 264.347 265.108C264.157 265.142 263.97 265.172 263.784 265.199C263.598 265.225 263.438 265.248 263.301 265.267C262.994 265.309 262.72 265.377 262.477 265.472C262.235 265.566 262.044 265.699 261.903 265.869C261.763 266.036 261.693 266.252 261.693 266.517C261.693 266.896 261.831 267.182 262.108 267.375C262.384 267.568 262.737 267.665 263.165 267.665ZM269.307 269V260.273H271.364V269H269.307ZM270.341 259.034C270.015 259.034 269.735 258.926 269.5 258.71C269.265 258.491 269.148 258.227 269.148 257.92C269.148 257.61 269.265 257.347 269.5 257.131C269.735 256.911 270.015 256.801 270.341 256.801C270.67 256.801 270.951 256.911 271.182 257.131C271.417 257.347 271.534 257.61 271.534 257.92C271.534 258.227 271.417 258.491 271.182 258.71C270.951 258.926 270.67 259.034 270.341 259.034ZM275.536 263.886V269H273.479V260.273H275.445V261.756H275.547C275.748 261.267 276.068 260.879 276.507 260.591C276.95 260.303 277.498 260.159 278.149 260.159C278.751 260.159 279.276 260.288 279.723 260.545C280.174 260.803 280.522 261.176 280.768 261.665C281.018 262.153 281.142 262.746 281.138 263.443V269H279.081V263.761C279.081 263.178 278.929 262.722 278.626 262.392C278.327 262.062 277.912 261.898 277.382 261.898C277.022 261.898 276.702 261.977 276.422 262.136C276.145 262.292 275.928 262.517 275.768 262.812C275.613 263.108 275.536 263.466 275.536 263.886ZM283.229 269V260.273H285.286V269H283.229ZM284.263 259.034C283.937 259.034 283.657 258.926 283.422 258.71C283.187 258.491 283.07 258.227 283.07 257.92C283.07 257.61 283.187 257.347 283.422 257.131C283.657 256.911 283.937 256.801 284.263 256.801C284.592 256.801 284.873 256.911 285.104 257.131C285.339 257.347 285.456 257.61 285.456 257.92C285.456 258.227 285.339 258.491 285.104 258.71C284.873 258.926 284.592 259.034 284.263 259.034ZM289.457 263.886V269H287.401V260.273H289.366V261.756H289.469C289.67 261.267 289.99 260.879 290.429 260.591C290.872 260.303 291.42 260.159 292.071 260.159C292.673 260.159 293.198 260.288 293.645 260.545C294.096 260.803 294.444 261.176 294.69 261.665C294.94 262.153 295.063 262.746 295.06 263.443V269H293.003V263.761C293.003 263.178 292.851 262.722 292.548 262.392C292.249 262.062 291.834 261.898 291.304 261.898C290.944 261.898 290.624 261.977 290.344 262.136C290.067 262.292 289.849 262.517 289.69 262.812C289.535 263.108 289.457 263.466 289.457 263.886ZM300.946 272.455C300.207 272.455 299.573 272.354 299.043 272.153C298.512 271.956 298.086 271.691 297.764 271.358C297.442 271.025 297.219 270.655 297.094 270.25L298.946 269.801C299.029 269.972 299.151 270.14 299.31 270.307C299.469 270.477 299.683 270.617 299.952 270.727C300.224 270.841 300.567 270.898 300.98 270.898C301.563 270.898 302.046 270.756 302.429 270.472C302.812 270.191 303.003 269.729 303.003 269.085V267.432H302.901C302.795 267.644 302.639 267.862 302.435 268.085C302.234 268.309 301.967 268.496 301.634 268.648C301.304 268.799 300.889 268.875 300.389 268.875C299.719 268.875 299.111 268.718 298.565 268.403C298.024 268.085 297.592 267.612 297.27 266.983C296.952 266.35 296.793 265.559 296.793 264.608C296.793 263.65 296.952 262.841 297.27 262.182C297.592 261.519 298.026 261.017 298.571 260.676C299.116 260.331 299.724 260.159 300.395 260.159C300.906 260.159 301.327 260.246 301.656 260.42C301.99 260.591 302.255 260.797 302.452 261.04C302.649 261.278 302.798 261.504 302.901 261.716H303.014V260.273H305.043V269.142C305.043 269.888 304.865 270.506 304.509 270.994C304.152 271.483 303.666 271.848 303.048 272.091C302.431 272.333 301.73 272.455 300.946 272.455ZM300.963 267.261C301.399 267.261 301.77 267.155 302.077 266.943C302.384 266.731 302.616 266.426 302.776 266.028C302.935 265.631 303.014 265.153 303.014 264.597C303.014 264.047 302.935 263.566 302.776 263.153C302.62 262.741 302.389 262.42 302.082 262.193C301.779 261.962 301.406 261.847 300.963 261.847C300.505 261.847 300.122 261.966 299.815 262.205C299.509 262.443 299.277 262.771 299.122 263.188C298.967 263.6 298.889 264.07 298.889 264.597C298.889 265.131 298.967 265.598 299.122 266C299.281 266.398 299.514 266.708 299.821 266.932C300.132 267.152 300.512 267.261 300.963 267.261ZM315.153 269H311.21V257.364H315.233C316.388 257.364 317.381 257.597 318.21 258.062C319.044 258.525 319.684 259.189 320.131 260.057C320.578 260.924 320.801 261.962 320.801 263.17C320.801 264.383 320.576 265.424 320.125 266.295C319.678 267.167 319.032 267.835 318.188 268.301C317.347 268.767 316.335 269 315.153 269ZM313.318 267.176H315.051C315.862 267.176 316.538 267.028 317.08 266.733C317.621 266.434 318.028 265.989 318.301 265.398C318.574 264.803 318.71 264.061 318.71 263.17C318.71 262.28 318.574 261.542 318.301 260.955C318.028 260.364 317.625 259.922 317.091 259.631C316.561 259.335 315.902 259.188 315.114 259.188H313.318V267.176ZM325.224 269.176C324.671 269.176 324.173 269.078 323.73 268.881C323.291 268.68 322.942 268.384 322.685 267.994C322.431 267.604 322.304 267.123 322.304 266.551C322.304 266.059 322.395 265.652 322.577 265.33C322.759 265.008 323.007 264.75 323.321 264.557C323.635 264.364 323.99 264.218 324.384 264.119C324.781 264.017 325.192 263.943 325.616 263.898C326.128 263.845 326.543 263.797 326.861 263.756C327.179 263.71 327.41 263.642 327.554 263.551C327.702 263.456 327.776 263.311 327.776 263.114V263.08C327.776 262.652 327.649 262.32 327.395 262.085C327.141 261.85 326.776 261.733 326.298 261.733C325.795 261.733 325.395 261.843 325.099 262.062C324.808 262.282 324.611 262.542 324.509 262.841L322.588 262.568C322.74 262.038 322.99 261.595 323.338 261.239C323.687 260.879 324.113 260.61 324.616 260.432C325.12 260.25 325.677 260.159 326.287 260.159C326.707 260.159 327.126 260.208 327.543 260.307C327.959 260.405 328.34 260.568 328.685 260.795C329.029 261.019 329.306 261.324 329.514 261.71C329.726 262.097 329.832 262.58 329.832 263.159V269H327.855V267.801H327.787C327.662 268.044 327.486 268.271 327.259 268.483C327.035 268.691 326.753 268.86 326.412 268.989C326.075 269.114 325.679 269.176 325.224 269.176ZM325.759 267.665C326.171 267.665 326.529 267.583 326.832 267.42C327.135 267.254 327.368 267.034 327.531 266.761C327.698 266.489 327.781 266.191 327.781 265.869V264.841C327.717 264.894 327.607 264.943 327.452 264.989C327.3 265.034 327.13 265.074 326.94 265.108C326.751 265.142 326.563 265.172 326.378 265.199C326.192 265.225 326.031 265.248 325.895 265.267C325.588 265.309 325.313 265.377 325.071 265.472C324.829 265.566 324.637 265.699 324.497 265.869C324.357 266.036 324.287 266.252 324.287 266.517C324.287 266.896 324.425 267.182 324.702 267.375C324.978 267.568 325.33 267.665 325.759 267.665ZM336.259 260.273V261.864H331.241V260.273H336.259ZM332.48 258.182H334.537V266.375C334.537 266.652 334.579 266.864 334.662 267.011C334.749 267.155 334.863 267.254 335.003 267.307C335.143 267.36 335.298 267.386 335.469 267.386C335.598 267.386 335.715 267.377 335.821 267.358C335.931 267.339 336.014 267.322 336.071 267.307L336.418 268.915C336.308 268.953 336.151 268.994 335.946 269.04C335.745 269.085 335.499 269.112 335.207 269.119C334.692 269.134 334.228 269.057 333.815 268.886C333.402 268.712 333.075 268.443 332.832 268.08C332.594 267.716 332.476 267.261 332.48 266.716V258.182ZM340.49 269.176C339.937 269.176 339.439 269.078 338.996 268.881C338.556 268.68 338.208 268.384 337.95 267.994C337.696 267.604 337.57 267.123 337.57 266.551C337.57 266.059 337.661 265.652 337.842 265.33C338.024 265.008 338.272 264.75 338.587 264.557C338.901 264.364 339.255 264.218 339.649 264.119C340.047 264.017 340.458 263.943 340.882 263.898C341.393 263.845 341.808 263.797 342.126 263.756C342.445 263.71 342.676 263.642 342.82 263.551C342.967 263.456 343.041 263.311 343.041 263.114V263.08C343.041 262.652 342.914 262.32 342.661 262.085C342.407 261.85 342.041 261.733 341.564 261.733C341.06 261.733 340.661 261.843 340.365 262.062C340.073 262.282 339.876 262.542 339.774 262.841L337.854 262.568C338.005 262.038 338.255 261.595 338.604 261.239C338.952 260.879 339.378 260.61 339.882 260.432C340.386 260.25 340.943 260.159 341.553 260.159C341.973 260.159 342.392 260.208 342.808 260.307C343.225 260.405 343.606 260.568 343.95 260.795C344.295 261.019 344.571 261.324 344.78 261.71C344.992 262.097 345.098 262.58 345.098 263.159V269H343.121V267.801H343.053C342.928 268.044 342.751 268.271 342.524 268.483C342.301 268.691 342.018 268.86 341.678 268.989C341.34 269.114 340.945 269.176 340.49 269.176ZM341.024 267.665C341.437 267.665 341.795 267.583 342.098 267.42C342.401 267.254 342.634 267.034 342.797 266.761C342.964 266.489 343.047 266.191 343.047 265.869V264.841C342.982 264.894 342.873 264.943 342.717 264.989C342.566 265.034 342.395 265.074 342.206 265.108C342.017 265.142 341.829 265.172 341.643 265.199C341.458 265.225 341.297 265.248 341.161 265.267C340.854 265.309 340.579 265.377 340.337 265.472C340.094 265.566 339.903 265.699 339.763 265.869C339.623 266.036 339.553 266.252 339.553 266.517C339.553 266.896 339.691 267.182 339.967 267.375C340.244 267.568 340.596 267.665 341.024 267.665ZM351.646 263.182C351.646 261.761 351.834 260.456 352.209 259.267C352.588 258.074 353.15 256.972 353.896 255.96H355.834C355.546 256.335 355.277 256.795 355.027 257.341C354.777 257.883 354.559 258.477 354.374 259.125C354.192 259.769 354.048 260.437 353.942 261.131C353.839 261.824 353.788 262.508 353.788 263.182C353.788 264.08 353.877 264.989 354.055 265.909C354.237 266.83 354.482 267.684 354.788 268.472C355.099 269.256 355.447 269.898 355.834 270.398H353.896C353.15 269.386 352.588 268.286 352.209 267.097C351.834 265.903 351.646 264.598 351.646 263.182ZM357.523 269V257.364H364.977V259.131H359.631V262.29H364.466V264.057H359.631V269H357.523ZM369.973 269.17C369.121 269.17 368.382 268.983 367.757 268.608C367.132 268.233 366.647 267.708 366.303 267.034C365.962 266.36 365.791 265.572 365.791 264.67C365.791 263.769 365.962 262.979 366.303 262.301C366.647 261.623 367.132 261.097 367.757 260.722C368.382 260.347 369.121 260.159 369.973 260.159C370.825 260.159 371.564 260.347 372.189 260.722C372.814 261.097 373.297 261.623 373.638 262.301C373.982 262.979 374.155 263.769 374.155 264.67C374.155 265.572 373.982 266.36 373.638 267.034C373.297 267.708 372.814 268.233 372.189 268.608C371.564 268.983 370.825 269.17 369.973 269.17ZM369.984 267.523C370.446 267.523 370.833 267.396 371.143 267.142C371.454 266.884 371.685 266.54 371.837 266.108C371.992 265.676 372.07 265.195 372.07 264.665C372.07 264.131 371.992 263.648 371.837 263.216C371.685 262.78 371.454 262.434 371.143 262.176C370.833 261.919 370.446 261.79 369.984 261.79C369.511 261.79 369.117 261.919 368.803 262.176C368.492 262.434 368.259 262.78 368.104 263.216C367.952 263.648 367.876 264.131 367.876 264.665C367.876 265.195 367.952 265.676 368.104 266.108C368.259 266.54 368.492 266.884 368.803 267.142C369.117 267.396 369.511 267.523 369.984 267.523ZM377.957 257.364V269H375.901V257.364H377.957ZM383.311 269.153C382.625 269.153 382.012 268.977 381.47 268.625C380.929 268.273 380.5 267.761 380.186 267.091C379.872 266.42 379.714 265.606 379.714 264.648C379.714 263.678 379.874 262.86 380.192 262.193C380.514 261.523 380.947 261.017 381.493 260.676C382.038 260.331 382.646 260.159 383.317 260.159C383.828 260.159 384.249 260.246 384.578 260.42C384.908 260.591 385.169 260.797 385.362 261.04C385.555 261.278 385.705 261.504 385.811 261.716H385.896V257.364H387.959V269H385.936V267.625H385.811C385.705 267.837 385.552 268.062 385.351 268.301C385.15 268.536 384.885 268.737 384.555 268.903C384.226 269.07 383.811 269.153 383.311 269.153ZM383.885 267.466C384.321 267.466 384.692 267.348 384.999 267.114C385.305 266.875 385.538 266.544 385.697 266.119C385.857 265.695 385.936 265.201 385.936 264.636C385.936 264.072 385.857 263.581 385.697 263.165C385.542 262.748 385.311 262.424 385.004 262.193C384.701 261.962 384.328 261.847 383.885 261.847C383.427 261.847 383.044 261.966 382.737 262.205C382.43 262.443 382.199 262.773 382.044 263.193C381.889 263.614 381.811 264.095 381.811 264.636C381.811 265.182 381.889 265.669 382.044 266.097C382.203 266.521 382.436 266.856 382.743 267.102C383.054 267.345 383.434 267.466 383.885 267.466ZM398.273 269.159C397.455 269.159 396.727 269.019 396.091 268.739C395.458 268.458 394.958 268.068 394.591 267.568C394.223 267.068 394.028 266.491 394.006 265.835H396.142C396.161 266.15 396.265 266.424 396.455 266.659C396.644 266.89 396.896 267.07 397.21 267.199C397.525 267.328 397.877 267.392 398.267 267.392C398.684 267.392 399.053 267.32 399.375 267.176C399.697 267.028 399.949 266.824 400.131 266.562C400.313 266.301 400.402 266 400.398 265.659C400.402 265.307 400.311 264.996 400.125 264.727C399.939 264.458 399.67 264.248 399.318 264.097C398.97 263.945 398.549 263.869 398.057 263.869H397.028V262.244H398.057C398.462 262.244 398.816 262.174 399.119 262.034C399.426 261.894 399.667 261.697 399.841 261.443C400.015 261.186 400.1 260.888 400.097 260.551C400.1 260.222 400.027 259.936 399.875 259.693C399.727 259.447 399.517 259.256 399.244 259.119C398.975 258.983 398.659 258.915 398.295 258.915C397.939 258.915 397.61 258.979 397.307 259.108C397.004 259.237 396.759 259.42 396.574 259.659C396.388 259.894 396.29 260.174 396.278 260.5H394.25C394.265 259.848 394.453 259.277 394.812 258.784C395.176 258.288 395.661 257.902 396.267 257.625C396.873 257.345 397.553 257.205 398.307 257.205C399.083 257.205 399.758 257.35 400.33 257.642C400.905 257.93 401.35 258.318 401.665 258.807C401.979 259.295 402.136 259.835 402.136 260.426C402.14 261.081 401.947 261.631 401.557 262.074C401.17 262.517 400.663 262.807 400.034 262.943V263.034C400.852 263.148 401.479 263.451 401.915 263.943C402.354 264.432 402.572 265.04 402.568 265.767C402.568 266.419 402.383 267.002 402.011 267.517C401.644 268.028 401.136 268.43 400.489 268.722C399.845 269.013 399.106 269.159 398.273 269.159ZM408.212 263.182C408.212 264.598 408.022 265.903 407.643 267.097C407.268 268.286 406.708 269.386 405.962 270.398H404.024C404.316 270.023 404.585 269.564 404.831 269.023C405.081 268.481 405.297 267.886 405.479 267.239C405.664 266.591 405.808 265.92 405.911 265.227C406.017 264.534 406.07 263.852 406.07 263.182C406.07 262.284 405.979 261.375 405.797 260.455C405.619 259.534 405.375 258.68 405.064 257.892C404.757 257.104 404.411 256.46 404.024 255.96H405.962C406.708 256.972 407.268 258.074 407.643 259.267C408.022 260.456 408.212 261.761 408.212 263.182Z" fill="black"/>
<path d="M347.466 352H343.523V340.364H347.545C348.701 340.364 349.693 340.597 350.523 341.062C351.356 341.525 351.996 342.189 352.443 343.057C352.89 343.924 353.114 344.962 353.114 346.17C353.114 347.383 352.888 348.424 352.438 349.295C351.991 350.167 351.345 350.835 350.5 351.301C349.659 351.767 348.648 352 347.466 352ZM345.631 350.176H347.364C348.174 350.176 348.85 350.028 349.392 349.733C349.934 349.434 350.341 348.989 350.614 348.398C350.886 347.803 351.023 347.061 351.023 346.17C351.023 345.28 350.886 344.542 350.614 343.955C350.341 343.364 349.938 342.922 349.403 342.631C348.873 342.335 348.214 342.188 347.426 342.188H345.631V350.176ZM357.537 352.176C356.984 352.176 356.486 352.078 356.043 351.881C355.603 351.68 355.255 351.384 354.997 350.994C354.743 350.604 354.616 350.123 354.616 349.551C354.616 349.059 354.707 348.652 354.889 348.33C355.071 348.008 355.319 347.75 355.634 347.557C355.948 347.364 356.302 347.218 356.696 347.119C357.094 347.017 357.505 346.943 357.929 346.898C358.44 346.845 358.855 346.797 359.173 346.756C359.491 346.71 359.723 346.642 359.866 346.551C360.014 346.456 360.088 346.311 360.088 346.114V346.08C360.088 345.652 359.961 345.32 359.707 345.085C359.454 344.85 359.088 344.733 358.611 344.733C358.107 344.733 357.707 344.843 357.412 345.062C357.12 345.282 356.923 345.542 356.821 345.841L354.901 345.568C355.052 345.038 355.302 344.595 355.651 344.239C355.999 343.879 356.425 343.61 356.929 343.432C357.433 343.25 357.99 343.159 358.599 343.159C359.02 343.159 359.438 343.208 359.855 343.307C360.272 343.405 360.652 343.568 360.997 343.795C361.342 344.019 361.618 344.324 361.827 344.71C362.039 345.097 362.145 345.58 362.145 346.159V352H360.168V350.801H360.099C359.974 351.044 359.798 351.271 359.571 351.483C359.348 351.691 359.065 351.86 358.724 351.989C358.387 352.114 357.991 352.176 357.537 352.176ZM358.071 350.665C358.484 350.665 358.842 350.583 359.145 350.42C359.448 350.254 359.681 350.034 359.844 349.761C360.01 349.489 360.094 349.191 360.094 348.869V347.841C360.029 347.894 359.92 347.943 359.764 347.989C359.613 348.034 359.442 348.074 359.253 348.108C359.063 348.142 358.876 348.172 358.69 348.199C358.505 348.225 358.344 348.248 358.207 348.267C357.901 348.309 357.626 348.377 357.384 348.472C357.141 348.566 356.95 348.699 356.81 348.869C356.67 349.036 356.599 349.252 356.599 349.517C356.599 349.896 356.738 350.182 357.014 350.375C357.291 350.568 357.643 350.665 358.071 350.665ZM368.571 343.273V344.864H363.554V343.273H368.571ZM364.793 341.182H366.849V349.375C366.849 349.652 366.891 349.864 366.974 350.011C367.062 350.155 367.175 350.254 367.315 350.307C367.455 350.36 367.611 350.386 367.781 350.386C367.91 350.386 368.027 350.377 368.134 350.358C368.243 350.339 368.327 350.322 368.384 350.307L368.73 351.915C368.62 351.953 368.463 351.994 368.259 352.04C368.058 352.085 367.812 352.112 367.52 352.119C367.005 352.134 366.541 352.057 366.128 351.886C365.715 351.712 365.387 351.443 365.145 351.08C364.906 350.716 364.789 350.261 364.793 349.716V341.182ZM374.061 352.17C373.186 352.17 372.43 351.989 371.794 351.625C371.161 351.258 370.675 350.739 370.334 350.068C369.993 349.394 369.822 348.6 369.822 347.688C369.822 346.79 369.993 346.002 370.334 345.324C370.679 344.642 371.16 344.112 371.777 343.733C372.394 343.35 373.12 343.159 373.953 343.159C374.491 343.159 374.999 343.246 375.476 343.42C375.957 343.591 376.381 343.856 376.749 344.216C377.12 344.576 377.411 345.034 377.624 345.591C377.836 346.144 377.942 346.803 377.942 347.568V348.199H370.788V346.812H375.97C375.966 346.419 375.881 346.068 375.714 345.761C375.548 345.451 375.315 345.206 375.016 345.028C374.72 344.85 374.375 344.761 373.982 344.761C373.561 344.761 373.192 344.864 372.874 345.068C372.555 345.269 372.307 345.534 372.129 345.864C371.955 346.189 371.866 346.547 371.862 346.938V348.148C371.862 348.655 371.955 349.091 372.141 349.455C372.326 349.814 372.586 350.091 372.919 350.284C373.252 350.473 373.643 350.568 374.089 350.568C374.389 350.568 374.66 350.527 374.902 350.443C375.144 350.356 375.355 350.229 375.533 350.062C375.711 349.896 375.845 349.689 375.936 349.443L377.857 349.659C377.735 350.167 377.504 350.61 377.163 350.989C376.826 351.364 376.394 351.655 375.868 351.864C375.341 352.068 374.739 352.17 374.061 352.17Z" fill="black"/>
<path d="M25 203.618H13.3636V199.254C13.3636 198.36 13.5303 197.61 13.8636 197.004C14.197 196.394 14.6553 195.934 15.2386 195.624C15.8182 195.309 16.4773 195.152 17.2159 195.152C17.9621 195.152 18.625 195.309 19.2045 195.624C19.7841 195.938 20.2405 196.402 20.5739 197.016C20.9034 197.629 21.0682 198.385 21.0682 199.283V202.175H19.3352V199.567C19.3352 199.044 19.2443 198.616 19.0625 198.283C18.8807 197.949 18.6307 197.703 18.3125 197.544C17.9943 197.381 17.6288 197.3 17.2159 197.3C16.803 197.3 16.4394 197.381 16.125 197.544C15.8106 197.703 15.5663 197.951 15.392 198.288C15.214 198.622 15.125 199.052 15.125 199.578V201.51H25V203.618ZM25 193.412H16.2727V191.418H17.7273V191.327C17.2235 191.168 16.8352 190.895 16.5625 190.509C16.286 190.118 16.1477 189.673 16.1477 189.173C16.1477 189.06 16.1534 188.933 16.1648 188.793C16.1723 188.649 16.1856 188.529 16.2045 188.435H18.0966C18.0663 188.522 18.0398 188.66 18.017 188.849C17.9905 189.035 17.9773 189.215 17.9773 189.389C17.9773 189.764 18.0587 190.101 18.2216 190.401C18.3807 190.696 18.6023 190.929 18.8864 191.099C19.1705 191.27 19.4981 191.355 19.8693 191.355H25V193.412ZM25 187.068H16.2727V185.011H25V187.068ZM15.0341 186.034C15.0341 186.36 14.9261 186.64 14.7102 186.875C14.4905 187.11 14.2273 187.227 13.9205 187.227C13.6098 187.227 13.3466 187.11 13.1307 186.875C12.911 186.64 12.8011 186.36 12.8011 186.034C12.8011 185.705 12.911 185.424 13.1307 185.193C13.3466 184.958 13.6098 184.841 13.9205 184.841C14.2273 184.841 14.4905 184.958 14.7102 185.193C14.9261 185.424 15.0341 185.705 15.0341 186.034ZM25.1705 179.089C25.1705 179.961 24.9792 180.709 24.5966 181.334C24.214 181.955 23.6856 182.434 23.0114 182.771C22.3333 183.105 21.553 183.271 20.6705 183.271C19.7841 183.271 19.0019 183.101 18.3239 182.76C17.642 182.419 17.1117 181.938 16.733 181.317C16.3504 180.692 16.1591 179.953 16.1591 179.101C16.1591 178.393 16.2898 177.766 16.5511 177.22C16.8087 176.671 17.1742 176.233 17.6477 175.908C18.1174 175.582 18.6667 175.396 19.2955 175.351V177.317C18.875 177.396 18.5246 177.586 18.2443 177.885C17.9602 178.18 17.8182 178.576 17.8182 179.072C17.8182 179.493 17.9318 179.862 18.1591 180.18C18.3826 180.499 18.7045 180.747 19.125 180.925C19.5455 181.099 20.0492 181.186 20.6364 181.186C21.2311 181.186 21.7424 181.099 22.1705 180.925C22.5947 180.75 22.9223 180.506 23.1534 180.192C23.3807 179.874 23.4943 179.5 23.4943 179.072C23.4943 178.769 23.4375 178.499 23.3239 178.26C23.2064 178.018 23.0379 177.815 22.8182 177.652C22.5985 177.489 22.3314 177.377 22.017 177.317V175.351C22.6345 175.4 23.1818 175.582 23.6591 175.896C24.1326 176.211 24.5038 176.639 24.7727 177.18C25.0379 177.722 25.1705 178.358 25.1705 179.089ZM25.1705 169.798C25.1705 170.673 24.9886 171.429 24.625 172.065C24.2576 172.698 23.7386 173.185 23.0682 173.526C22.3939 173.866 21.6004 174.037 20.6875 174.037C19.7898 174.037 19.0019 173.866 18.3239 173.526C17.642 173.181 17.1117 172.7 16.733 172.082C16.3504 171.465 16.1591 170.74 16.1591 169.906C16.1591 169.368 16.2462 168.861 16.4205 168.384C16.5909 167.902 16.8561 167.478 17.2159 167.111C17.5758 166.74 18.0341 166.448 18.5909 166.236C19.1439 166.024 19.803 165.918 20.5682 165.918H21.1989V173.071H19.8125V167.889C19.4186 167.893 19.0682 167.978 18.7614 168.145C18.4508 168.312 18.2064 168.545 18.0284 168.844C17.8504 169.139 17.7614 169.484 17.7614 169.878C17.7614 170.298 17.8636 170.668 18.0682 170.986C18.2689 171.304 18.5341 171.552 18.8636 171.73C19.1894 171.904 19.5473 171.993 19.9375 171.997H21.1477C21.6553 171.997 22.0909 171.904 22.4545 171.719C22.8144 171.533 23.0909 171.274 23.2841 170.94C23.4735 170.607 23.5682 170.217 23.5682 169.77C23.5682 169.471 23.5265 169.2 23.4432 168.957C23.3561 168.715 23.2292 168.505 23.0625 168.327C22.8958 168.149 22.6894 168.014 22.4432 167.923L22.6591 166.003C23.1667 166.124 23.6098 166.355 23.9886 166.696C24.3636 167.033 24.6553 167.465 24.8636 167.991C25.0682 168.518 25.1705 169.12 25.1705 169.798Z" fill="black"/>
<path d="M294.847 77.1307V75.3636H304.131V77.1307H300.535V87H298.444V77.1307H294.847ZM308.428 87.1705C307.553 87.1705 306.798 86.9886 306.161 86.625C305.529 86.2576 305.042 85.7386 304.701 85.0682C304.36 84.3939 304.19 83.6004 304.19 82.6875C304.19 81.7898 304.36 81.0019 304.701 80.3239C305.046 79.642 305.527 79.1117 306.144 78.733C306.762 78.3504 307.487 78.1591 308.32 78.1591C308.858 78.1591 309.366 78.2462 309.843 78.4205C310.324 78.5909 310.748 78.8561 311.116 79.2159C311.487 79.5758 311.779 80.0341 311.991 80.5909C312.203 81.1439 312.309 81.803 312.309 82.5682V83.1989H305.156V81.8125H310.337C310.334 81.4186 310.248 81.0682 310.082 80.7614C309.915 80.4508 309.682 80.2064 309.383 80.0284C309.087 79.8504 308.743 79.7614 308.349 79.7614C307.928 79.7614 307.559 79.8636 307.241 80.0682C306.923 80.2689 306.674 80.5341 306.496 80.8636C306.322 81.1894 306.233 81.5473 306.229 81.9375V83.1477C306.229 83.6553 306.322 84.0909 306.508 84.4545C306.693 84.8144 306.953 85.0909 307.286 85.2841C307.62 85.4735 308.01 85.5682 308.457 85.5682C308.756 85.5682 309.027 85.5265 309.269 85.4432C309.512 85.3561 309.722 85.2292 309.9 85.0625C310.078 84.8958 310.212 84.6894 310.303 84.4432L312.224 84.6591C312.103 85.1667 311.871 85.6098 311.531 85.9886C311.193 86.3636 310.762 86.6553 310.235 86.8636C309.709 87.0682 309.106 87.1705 308.428 87.1705ZM320.947 80.5795L319.072 80.7841C319.019 80.5947 318.926 80.4167 318.793 80.25C318.665 80.0833 318.49 79.9489 318.271 79.8466C318.051 79.7443 317.782 79.6932 317.464 79.6932C317.036 79.6932 316.676 79.786 316.384 79.9716C316.096 80.1572 315.954 80.3977 315.958 80.6932C315.954 80.947 316.047 81.1534 316.237 81.3125C316.43 81.4716 316.748 81.6023 317.191 81.7045L318.68 82.0227C319.505 82.2008 320.119 82.483 320.521 82.8693C320.926 83.2557 321.13 83.7614 321.134 84.3864C321.13 84.9356 320.969 85.4205 320.651 85.8409C320.337 86.2576 319.899 86.5833 319.339 86.8182C318.778 87.053 318.134 87.1705 317.407 87.1705C316.339 87.1705 315.479 86.947 314.827 86.5C314.176 86.0492 313.788 85.4223 313.663 84.6193L315.668 84.4261C315.759 84.8201 315.952 85.1174 316.248 85.3182C316.543 85.5189 316.928 85.6193 317.401 85.6193C317.89 85.6193 318.282 85.5189 318.577 85.3182C318.877 85.1174 319.026 84.8693 319.026 84.5739C319.026 84.3239 318.93 84.1174 318.737 83.9545C318.547 83.7917 318.252 83.6667 317.85 83.5795L316.362 83.267C315.524 83.0928 314.905 82.7992 314.504 82.3864C314.102 81.9697 313.903 81.4432 313.907 80.8068C313.903 80.2689 314.049 79.803 314.344 79.4091C314.644 79.0114 315.058 78.7045 315.589 78.4886C316.123 78.2689 316.738 78.1591 317.435 78.1591C318.458 78.1591 319.263 78.3769 319.85 78.8125C320.441 79.2481 320.807 79.8371 320.947 80.5795ZM327.188 78.2727V79.8636H322.171V78.2727H327.188ZM323.41 76.1818H325.467V84.375C325.467 84.6515 325.508 84.8636 325.592 85.0114C325.679 85.1553 325.792 85.2538 325.933 85.3068C326.073 85.3598 326.228 85.3864 326.398 85.3864C326.527 85.3864 326.645 85.3769 326.751 85.358C326.861 85.339 326.944 85.322 327.001 85.3068L327.347 86.9148C327.237 86.9527 327.08 86.9943 326.876 87.0398C326.675 87.0852 326.429 87.1117 326.137 87.1193C325.622 87.1345 325.158 87.0568 324.745 86.8864C324.332 86.7121 324.004 86.4432 323.762 86.0795C323.523 85.7159 323.406 85.2614 323.41 84.7159V76.1818ZM328.908 87V78.2727H330.965V87H328.908ZM329.942 77.0341C329.617 77.0341 329.336 76.9261 329.102 76.7102C328.867 76.4905 328.749 76.2273 328.749 75.9205C328.749 75.6098 328.867 75.3466 329.102 75.1307C329.336 74.911 329.617 74.8011 329.942 74.8011C330.272 74.8011 330.552 74.911 330.783 75.1307C331.018 75.3466 331.136 75.6098 331.136 75.9205C331.136 76.2273 331.018 76.4905 330.783 76.7102C330.552 76.9261 330.272 77.0341 329.942 77.0341ZM335.137 81.8864V87H333.08V78.2727H335.046V79.7557H335.148C335.349 79.267 335.669 78.8788 336.109 78.5909C336.552 78.303 337.099 78.1591 337.751 78.1591C338.353 78.1591 338.878 78.2879 339.325 78.5455C339.775 78.803 340.124 79.1761 340.37 79.6648C340.62 80.1534 340.743 80.7462 340.739 81.4432V87H338.683V81.7614C338.683 81.178 338.531 80.7216 338.228 80.392C337.929 80.0625 337.514 79.8977 336.984 79.8977C336.624 79.8977 336.304 79.9773 336.023 80.1364C335.747 80.2917 335.529 80.517 335.37 80.8125C335.215 81.108 335.137 81.4659 335.137 81.8864ZM346.626 90.4545C345.887 90.4545 345.253 90.3542 344.722 90.1534C344.192 89.9564 343.766 89.6913 343.444 89.358C343.122 89.0246 342.898 88.6553 342.773 88.25L344.626 87.8011C344.709 87.9716 344.83 88.1402 344.989 88.3068C345.148 88.4773 345.362 88.6174 345.631 88.7273C345.904 88.8409 346.247 88.8977 346.66 88.8977C347.243 88.8977 347.726 88.7557 348.109 88.4716C348.491 88.1913 348.683 87.7292 348.683 87.0852V85.4318H348.58C348.474 85.6439 348.319 85.8617 348.114 86.0852C347.914 86.3087 347.647 86.4962 347.313 86.6477C346.984 86.7992 346.569 86.875 346.069 86.875C345.398 86.875 344.79 86.7178 344.245 86.4034C343.703 86.0852 343.272 85.6117 342.95 84.983C342.631 84.3504 342.472 83.5587 342.472 82.608C342.472 81.6496 342.631 80.8409 342.95 80.1818C343.272 79.5189 343.705 79.017 344.251 78.6761C344.796 78.3314 345.404 78.1591 346.075 78.1591C346.586 78.1591 347.006 78.2462 347.336 78.4205C347.669 78.5909 347.934 78.7973 348.131 79.0398C348.328 79.2784 348.478 79.5038 348.58 79.7159H348.694V78.2727H350.722V87.142C350.722 87.8883 350.544 88.5057 350.188 88.9943C349.832 89.483 349.345 89.8485 348.728 90.0909C348.111 90.3333 347.41 90.4545 346.626 90.4545ZM346.643 85.2614C347.078 85.2614 347.45 85.1553 347.756 84.9432C348.063 84.7311 348.296 84.4261 348.455 84.0284C348.614 83.6307 348.694 83.1534 348.694 82.5966C348.694 82.0473 348.614 81.5663 348.455 81.1534C348.3 80.7405 348.069 80.4205 347.762 80.1932C347.459 79.9621 347.086 79.8466 346.643 79.8466C346.184 79.8466 345.802 79.9659 345.495 80.2045C345.188 80.4432 344.957 80.7708 344.802 81.1875C344.647 81.6004 344.569 82.0701 344.569 82.5966C344.569 83.1307 344.647 83.5985 344.802 84C344.961 84.3977 345.194 84.7083 345.501 84.9318C345.811 85.1515 346.192 85.2614 346.643 85.2614ZM360.833 87H356.89V75.3636H360.913C362.068 75.3636 363.06 75.5966 363.89 76.0625C364.723 76.5246 365.363 77.1894 365.81 78.0568C366.257 78.9242 366.481 79.9621 366.481 81.1705C366.481 82.3826 366.255 83.4242 365.805 84.2955C365.358 85.1667 364.712 85.8352 363.867 86.3011C363.026 86.767 362.015 87 360.833 87ZM358.998 85.1761H360.731C361.541 85.1761 362.218 85.0284 362.759 84.733C363.301 84.4337 363.708 83.9886 363.981 83.3977C364.254 82.803 364.39 82.0606 364.39 81.1705C364.39 80.2803 364.254 79.5417 363.981 78.9545C363.708 78.3636 363.305 77.9223 362.771 77.6307C362.24 77.3352 361.581 77.1875 360.793 77.1875H358.998V85.1761ZM370.904 87.1761C370.351 87.1761 369.853 87.0777 369.41 86.8807C368.97 86.6799 368.622 86.3845 368.364 85.9943C368.111 85.6042 367.984 85.1231 367.984 84.5511C367.984 84.0587 368.075 83.6515 368.256 83.3295C368.438 83.0076 368.686 82.75 369.001 82.5568C369.315 82.3636 369.669 82.2178 370.063 82.1193C370.461 82.017 370.872 81.9432 371.296 81.8977C371.808 81.8447 372.222 81.7973 372.54 81.7557C372.859 81.7102 373.09 81.642 373.234 81.5511C373.381 81.4564 373.455 81.3106 373.455 81.1136V81.0795C373.455 80.6515 373.328 80.3201 373.075 80.0852C372.821 79.8504 372.455 79.733 371.978 79.733C371.474 79.733 371.075 79.8428 370.779 80.0625C370.487 80.2822 370.29 80.5417 370.188 80.8409L368.268 80.5682C368.419 80.0379 368.669 79.5947 369.018 79.2386C369.366 78.8788 369.792 78.6098 370.296 78.4318C370.8 78.25 371.357 78.1591 371.967 78.1591C372.387 78.1591 372.806 78.2083 373.222 78.3068C373.639 78.4053 374.02 78.5682 374.364 78.7955C374.709 79.0189 374.986 79.3239 375.194 79.7102C375.406 80.0966 375.512 80.5795 375.512 81.1591V87H373.535V85.8011H373.467C373.342 86.0436 373.165 86.2708 372.938 86.483C372.715 86.6913 372.433 86.8598 372.092 86.9886C371.754 87.1136 371.359 87.1761 370.904 87.1761ZM371.438 85.6648C371.851 85.6648 372.209 85.5833 372.512 85.4205C372.815 85.2538 373.048 85.0341 373.211 84.7614C373.378 84.4886 373.461 84.1913 373.461 83.8693V82.8409C373.397 82.8939 373.287 82.9432 373.131 82.9886C372.98 83.0341 372.809 83.0739 372.62 83.108C372.431 83.142 372.243 83.1723 372.058 83.1989C371.872 83.2254 371.711 83.2481 371.575 83.267C371.268 83.3087 370.993 83.3769 370.751 83.4716C370.508 83.5663 370.317 83.6989 370.177 83.8693C370.037 84.036 369.967 84.2519 369.967 84.517C369.967 84.8958 370.105 85.1818 370.381 85.375C370.658 85.5682 371.01 85.6648 371.438 85.6648ZM381.938 78.2727V79.8636H376.921V78.2727H381.938ZM378.16 76.1818H380.217V84.375C380.217 84.6515 380.258 84.8636 380.342 85.0114C380.429 85.1553 380.542 85.2538 380.683 85.3068C380.823 85.3598 380.978 85.3864 381.148 85.3864C381.277 85.3864 381.395 85.3769 381.501 85.358C381.611 85.339 381.694 85.322 381.751 85.3068L382.097 86.9148C381.987 86.9527 381.83 86.9943 381.626 87.0398C381.425 87.0852 381.179 87.1117 380.887 87.1193C380.372 87.1345 379.908 87.0568 379.495 86.8864C379.082 86.7121 378.754 86.4432 378.512 86.0795C378.273 85.7159 378.156 85.2614 378.16 84.7159V76.1818ZM386.17 87.1761C385.617 87.1761 385.119 87.0777 384.675 86.8807C384.236 86.6799 383.888 86.3845 383.63 85.9943C383.376 85.6042 383.249 85.1231 383.249 84.5511C383.249 84.0587 383.34 83.6515 383.522 83.3295C383.704 83.0076 383.952 82.75 384.266 82.5568C384.581 82.3636 384.935 82.2178 385.329 82.1193C385.727 82.017 386.138 81.9432 386.562 81.8977C387.073 81.8447 387.488 81.7973 387.806 81.7557C388.124 81.7102 388.355 81.642 388.499 81.5511C388.647 81.4564 388.721 81.3106 388.721 81.1136V81.0795C388.721 80.6515 388.594 80.3201 388.34 80.0852C388.086 79.8504 387.721 79.733 387.244 79.733C386.74 79.733 386.34 79.8428 386.045 80.0625C385.753 80.2822 385.556 80.5417 385.454 80.8409L383.533 80.5682C383.685 80.0379 383.935 79.5947 384.283 79.2386C384.632 78.8788 385.058 78.6098 385.562 78.4318C386.066 78.25 386.622 78.1591 387.232 78.1591C387.653 78.1591 388.071 78.2083 388.488 78.3068C388.905 78.4053 389.285 78.5682 389.63 78.7955C389.975 79.0189 390.251 79.3239 390.46 79.7102C390.672 80.0966 390.778 80.5795 390.778 81.1591V87H388.8V85.8011H388.732C388.607 86.0436 388.431 86.2708 388.204 86.483C387.98 86.6913 387.698 86.8598 387.357 86.9886C387.02 87.1136 386.624 87.1761 386.17 87.1761ZM386.704 85.6648C387.117 85.6648 387.475 85.5833 387.778 85.4205C388.081 85.2538 388.314 85.0341 388.477 84.7614C388.643 84.4886 388.727 84.1913 388.727 83.8693V82.8409C388.662 82.8939 388.552 82.9432 388.397 82.9886C388.246 83.0341 388.075 83.0739 387.886 83.108C387.696 83.142 387.509 83.1723 387.323 83.1989C387.138 83.2254 386.977 83.2481 386.84 83.267C386.533 83.3087 386.259 83.3769 386.016 83.4716C385.774 83.5663 385.583 83.6989 385.442 83.8693C385.302 84.036 385.232 84.2519 385.232 84.517C385.232 84.8958 385.371 85.1818 385.647 85.375C385.924 85.5682 386.276 85.6648 386.704 85.6648Z" fill="white"/>
<path d="M433.847 163.131V161.364H443.131V163.131H439.535V173H437.444V163.131H433.847ZM447.428 173.17C446.553 173.17 445.798 172.989 445.161 172.625C444.529 172.258 444.042 171.739 443.701 171.068C443.36 170.394 443.19 169.6 443.19 168.688C443.19 167.79 443.36 167.002 443.701 166.324C444.046 165.642 444.527 165.112 445.144 164.733C445.762 164.35 446.487 164.159 447.32 164.159C447.858 164.159 448.366 164.246 448.843 164.42C449.324 164.591 449.748 164.856 450.116 165.216C450.487 165.576 450.779 166.034 450.991 166.591C451.203 167.144 451.309 167.803 451.309 168.568V169.199H444.156V167.812H449.337C449.334 167.419 449.248 167.068 449.082 166.761C448.915 166.451 448.682 166.206 448.383 166.028C448.087 165.85 447.743 165.761 447.349 165.761C446.928 165.761 446.559 165.864 446.241 166.068C445.923 166.269 445.674 166.534 445.496 166.864C445.322 167.189 445.233 167.547 445.229 167.938V169.148C445.229 169.655 445.322 170.091 445.508 170.455C445.693 170.814 445.953 171.091 446.286 171.284C446.62 171.473 447.01 171.568 447.457 171.568C447.756 171.568 448.027 171.527 448.269 171.443C448.512 171.356 448.722 171.229 448.9 171.062C449.078 170.896 449.212 170.689 449.303 170.443L451.224 170.659C451.103 171.167 450.871 171.61 450.531 171.989C450.193 172.364 449.762 172.655 449.235 172.864C448.709 173.068 448.106 173.17 447.428 173.17ZM459.947 166.58L458.072 166.784C458.019 166.595 457.926 166.417 457.793 166.25C457.665 166.083 457.49 165.949 457.271 165.847C457.051 165.744 456.782 165.693 456.464 165.693C456.036 165.693 455.676 165.786 455.384 165.972C455.096 166.157 454.954 166.398 454.958 166.693C454.954 166.947 455.047 167.153 455.237 167.312C455.43 167.472 455.748 167.602 456.191 167.705L457.68 168.023C458.505 168.201 459.119 168.483 459.521 168.869C459.926 169.256 460.13 169.761 460.134 170.386C460.13 170.936 459.969 171.42 459.651 171.841C459.337 172.258 458.899 172.583 458.339 172.818C457.778 173.053 457.134 173.17 456.407 173.17C455.339 173.17 454.479 172.947 453.827 172.5C453.176 172.049 452.788 171.422 452.663 170.619L454.668 170.426C454.759 170.82 454.952 171.117 455.248 171.318C455.543 171.519 455.928 171.619 456.401 171.619C456.89 171.619 457.282 171.519 457.577 171.318C457.877 171.117 458.026 170.869 458.026 170.574C458.026 170.324 457.93 170.117 457.737 169.955C457.547 169.792 457.252 169.667 456.85 169.58L455.362 169.267C454.524 169.093 453.905 168.799 453.504 168.386C453.102 167.97 452.903 167.443 452.907 166.807C452.903 166.269 453.049 165.803 453.344 165.409C453.644 165.011 454.058 164.705 454.589 164.489C455.123 164.269 455.738 164.159 456.435 164.159C457.458 164.159 458.263 164.377 458.85 164.812C459.441 165.248 459.807 165.837 459.947 166.58ZM466.188 164.273V165.864H461.171V164.273H466.188ZM462.41 162.182H464.467V170.375C464.467 170.652 464.508 170.864 464.592 171.011C464.679 171.155 464.792 171.254 464.933 171.307C465.073 171.36 465.228 171.386 465.398 171.386C465.527 171.386 465.645 171.377 465.751 171.358C465.861 171.339 465.944 171.322 466.001 171.307L466.347 172.915C466.237 172.953 466.08 172.994 465.876 173.04C465.675 173.085 465.429 173.112 465.137 173.119C464.622 173.134 464.158 173.057 463.745 172.886C463.332 172.712 463.004 172.443 462.762 172.08C462.523 171.716 462.406 171.261 462.41 170.716V162.182ZM467.908 173V164.273H469.965V173H467.908ZM468.942 163.034C468.617 163.034 468.336 162.926 468.102 162.71C467.867 162.491 467.749 162.227 467.749 161.92C467.749 161.61 467.867 161.347 468.102 161.131C468.336 160.911 468.617 160.801 468.942 160.801C469.272 160.801 469.552 160.911 469.783 161.131C470.018 161.347 470.136 161.61 470.136 161.92C470.136 162.227 470.018 162.491 469.783 162.71C469.552 162.926 469.272 163.034 468.942 163.034ZM474.137 167.886V173H472.08V164.273H474.046V165.756H474.148C474.349 165.267 474.669 164.879 475.109 164.591C475.552 164.303 476.099 164.159 476.751 164.159C477.353 164.159 477.878 164.288 478.325 164.545C478.775 164.803 479.124 165.176 479.37 165.665C479.62 166.153 479.743 166.746 479.739 167.443V173H477.683V167.761C477.683 167.178 477.531 166.722 477.228 166.392C476.929 166.062 476.514 165.898 475.984 165.898C475.624 165.898 475.304 165.977 475.023 166.136C474.747 166.292 474.529 166.517 474.37 166.812C474.215 167.108 474.137 167.466 474.137 167.886ZM485.626 176.455C484.887 176.455 484.253 176.354 483.722 176.153C483.192 175.956 482.766 175.691 482.444 175.358C482.122 175.025 481.898 174.655 481.773 174.25L483.626 173.801C483.709 173.972 483.83 174.14 483.989 174.307C484.148 174.477 484.362 174.617 484.631 174.727C484.904 174.841 485.247 174.898 485.66 174.898C486.243 174.898 486.726 174.756 487.109 174.472C487.491 174.191 487.683 173.729 487.683 173.085V171.432H487.58C487.474 171.644 487.319 171.862 487.114 172.085C486.914 172.309 486.647 172.496 486.313 172.648C485.984 172.799 485.569 172.875 485.069 172.875C484.398 172.875 483.79 172.718 483.245 172.403C482.703 172.085 482.272 171.612 481.95 170.983C481.631 170.35 481.472 169.559 481.472 168.608C481.472 167.65 481.631 166.841 481.95 166.182C482.272 165.519 482.705 165.017 483.251 164.676C483.796 164.331 484.404 164.159 485.075 164.159C485.586 164.159 486.006 164.246 486.336 164.42C486.669 164.591 486.934 164.797 487.131 165.04C487.328 165.278 487.478 165.504 487.58 165.716H487.694V164.273H489.722V173.142C489.722 173.888 489.544 174.506 489.188 174.994C488.832 175.483 488.345 175.848 487.728 176.091C487.111 176.333 486.41 176.455 485.626 176.455ZM485.643 171.261C486.078 171.261 486.45 171.155 486.756 170.943C487.063 170.731 487.296 170.426 487.455 170.028C487.614 169.631 487.694 169.153 487.694 168.597C487.694 168.047 487.614 167.566 487.455 167.153C487.3 166.741 487.069 166.42 486.762 166.193C486.459 165.962 486.086 165.847 485.643 165.847C485.184 165.847 484.802 165.966 484.495 166.205C484.188 166.443 483.957 166.771 483.802 167.188C483.647 167.6 483.569 168.07 483.569 168.597C483.569 169.131 483.647 169.598 483.802 170C483.961 170.398 484.194 170.708 484.501 170.932C484.811 171.152 485.192 171.261 485.643 171.261ZM499.833 173H495.89V161.364H499.913C501.068 161.364 502.06 161.597 502.89 162.062C503.723 162.525 504.363 163.189 504.81 164.057C505.257 164.924 505.481 165.962 505.481 167.17C505.481 168.383 505.255 169.424 504.805 170.295C504.358 171.167 503.712 171.835 502.867 172.301C502.026 172.767 501.015 173 499.833 173ZM497.998 171.176H499.731C500.541 171.176 501.218 171.028 501.759 170.733C502.301 170.434 502.708 169.989 502.981 169.398C503.254 168.803 503.39 168.061 503.39 167.17C503.39 166.28 503.254 165.542 502.981 164.955C502.708 164.364 502.305 163.922 501.771 163.631C501.24 163.335 500.581 163.188 499.793 163.188H497.998V171.176ZM509.904 173.176C509.351 173.176 508.853 173.078 508.41 172.881C507.97 172.68 507.622 172.384 507.364 171.994C507.111 171.604 506.984 171.123 506.984 170.551C506.984 170.059 507.075 169.652 507.256 169.33C507.438 169.008 507.686 168.75 508.001 168.557C508.315 168.364 508.669 168.218 509.063 168.119C509.461 168.017 509.872 167.943 510.296 167.898C510.808 167.845 511.222 167.797 511.54 167.756C511.859 167.71 512.09 167.642 512.234 167.551C512.381 167.456 512.455 167.311 512.455 167.114V167.08C512.455 166.652 512.328 166.32 512.075 166.085C511.821 165.85 511.455 165.733 510.978 165.733C510.474 165.733 510.075 165.843 509.779 166.062C509.487 166.282 509.29 166.542 509.188 166.841L507.268 166.568C507.419 166.038 507.669 165.595 508.018 165.239C508.366 164.879 508.792 164.61 509.296 164.432C509.8 164.25 510.357 164.159 510.967 164.159C511.387 164.159 511.806 164.208 512.222 164.307C512.639 164.405 513.02 164.568 513.364 164.795C513.709 165.019 513.986 165.324 514.194 165.71C514.406 166.097 514.512 166.58 514.512 167.159V173H512.535V171.801H512.467C512.342 172.044 512.165 172.271 511.938 172.483C511.715 172.691 511.433 172.86 511.092 172.989C510.754 173.114 510.359 173.176 509.904 173.176ZM510.438 171.665C510.851 171.665 511.209 171.583 511.512 171.42C511.815 171.254 512.048 171.034 512.211 170.761C512.378 170.489 512.461 170.191 512.461 169.869V168.841C512.397 168.894 512.287 168.943 512.131 168.989C511.98 169.034 511.809 169.074 511.62 169.108C511.431 169.142 511.243 169.172 511.058 169.199C510.872 169.225 510.711 169.248 510.575 169.267C510.268 169.309 509.993 169.377 509.751 169.472C509.508 169.566 509.317 169.699 509.177 169.869C509.037 170.036 508.967 170.252 508.967 170.517C508.967 170.896 509.105 171.182 509.381 171.375C509.658 171.568 510.01 171.665 510.438 171.665ZM520.938 164.273V165.864H515.921V164.273H520.938ZM517.16 162.182H519.217V170.375C519.217 170.652 519.258 170.864 519.342 171.011C519.429 171.155 519.542 171.254 519.683 171.307C519.823 171.36 519.978 171.386 520.148 171.386C520.277 171.386 520.395 171.377 520.501 171.358C520.611 171.339 520.694 171.322 520.751 171.307L521.097 172.915C520.987 172.953 520.83 172.994 520.626 173.04C520.425 173.085 520.179 173.112 519.887 173.119C519.372 173.134 518.908 173.057 518.495 172.886C518.082 172.712 517.754 172.443 517.512 172.08C517.273 171.716 517.156 171.261 517.16 170.716V162.182ZM525.17 173.176C524.617 173.176 524.119 173.078 523.675 172.881C523.236 172.68 522.888 172.384 522.63 171.994C522.376 171.604 522.249 171.123 522.249 170.551C522.249 170.059 522.34 169.652 522.522 169.33C522.704 169.008 522.952 168.75 523.266 168.557C523.581 168.364 523.935 168.218 524.329 168.119C524.727 168.017 525.138 167.943 525.562 167.898C526.073 167.845 526.488 167.797 526.806 167.756C527.124 167.71 527.355 167.642 527.499 167.551C527.647 167.456 527.721 167.311 527.721 167.114V167.08C527.721 166.652 527.594 166.32 527.34 166.085C527.086 165.85 526.721 165.733 526.244 165.733C525.74 165.733 525.34 165.843 525.045 166.062C524.753 166.282 524.556 166.542 524.454 166.841L522.533 166.568C522.685 166.038 522.935 165.595 523.283 165.239C523.632 164.879 524.058 164.61 524.562 164.432C525.066 164.25 525.622 164.159 526.232 164.159C526.653 164.159 527.071 164.208 527.488 164.307C527.905 164.405 528.285 164.568 528.63 164.795C528.975 165.019 529.251 165.324 529.46 165.71C529.672 166.097 529.778 166.58 529.778 167.159V173H527.8V171.801H527.732C527.607 172.044 527.431 172.271 527.204 172.483C526.98 172.691 526.698 172.86 526.357 172.989C526.02 173.114 525.624 173.176 525.17 173.176ZM525.704 171.665C526.117 171.665 526.475 171.583 526.778 171.42C527.081 171.254 527.314 171.034 527.477 170.761C527.643 170.489 527.727 170.191 527.727 169.869V168.841C527.662 168.894 527.552 168.943 527.397 168.989C527.246 169.034 527.075 169.074 526.886 169.108C526.696 169.142 526.509 169.172 526.323 169.199C526.138 169.225 525.977 169.248 525.84 169.267C525.533 169.309 525.259 169.377 525.016 169.472C524.774 169.566 524.583 169.699 524.442 169.869C524.302 170.036 524.232 170.252 524.232 170.517C524.232 170.896 524.371 171.182 524.647 171.375C524.924 171.568 525.276 171.665 525.704 171.665Z" fill="white"/>
<path d="M570.847 259.131V257.364H580.131V259.131H576.535V269H574.444V259.131H570.847ZM584.428 269.17C583.553 269.17 582.798 268.989 582.161 268.625C581.529 268.258 581.042 267.739 580.701 267.068C580.36 266.394 580.19 265.6 580.19 264.688C580.19 263.79 580.36 263.002 580.701 262.324C581.046 261.642 581.527 261.112 582.144 260.733C582.762 260.35 583.487 260.159 584.32 260.159C584.858 260.159 585.366 260.246 585.843 260.42C586.324 260.591 586.748 260.856 587.116 261.216C587.487 261.576 587.779 262.034 587.991 262.591C588.203 263.144 588.309 263.803 588.309 264.568V265.199H581.156V263.812H586.337C586.334 263.419 586.248 263.068 586.082 262.761C585.915 262.451 585.682 262.206 585.383 262.028C585.087 261.85 584.743 261.761 584.349 261.761C583.928 261.761 583.559 261.864 583.241 262.068C582.923 262.269 582.674 262.534 582.496 262.864C582.322 263.189 582.233 263.547 582.229 263.938V265.148C582.229 265.655 582.322 266.091 582.508 266.455C582.693 266.814 582.953 267.091 583.286 267.284C583.62 267.473 584.01 267.568 584.457 267.568C584.756 267.568 585.027 267.527 585.269 267.443C585.512 267.356 585.722 267.229 585.9 267.062C586.078 266.896 586.212 266.689 586.303 266.443L588.224 266.659C588.103 267.167 587.871 267.61 587.531 267.989C587.193 268.364 586.762 268.655 586.235 268.864C585.709 269.068 585.106 269.17 584.428 269.17ZM596.947 262.58L595.072 262.784C595.019 262.595 594.926 262.417 594.793 262.25C594.665 262.083 594.49 261.949 594.271 261.847C594.051 261.744 593.782 261.693 593.464 261.693C593.036 261.693 592.676 261.786 592.384 261.972C592.096 262.157 591.954 262.398 591.958 262.693C591.954 262.947 592.047 263.153 592.237 263.312C592.43 263.472 592.748 263.602 593.191 263.705L594.68 264.023C595.505 264.201 596.119 264.483 596.521 264.869C596.926 265.256 597.13 265.761 597.134 266.386C597.13 266.936 596.969 267.42 596.651 267.841C596.337 268.258 595.899 268.583 595.339 268.818C594.778 269.053 594.134 269.17 593.407 269.17C592.339 269.17 591.479 268.947 590.827 268.5C590.176 268.049 589.788 267.422 589.663 266.619L591.668 266.426C591.759 266.82 591.952 267.117 592.248 267.318C592.543 267.519 592.928 267.619 593.401 267.619C593.89 267.619 594.282 267.519 594.577 267.318C594.877 267.117 595.026 266.869 595.026 266.574C595.026 266.324 594.93 266.117 594.737 265.955C594.547 265.792 594.252 265.667 593.85 265.58L592.362 265.267C591.524 265.093 590.905 264.799 590.504 264.386C590.102 263.97 589.903 263.443 589.907 262.807C589.903 262.269 590.049 261.803 590.344 261.409C590.644 261.011 591.058 260.705 591.589 260.489C592.123 260.269 592.738 260.159 593.435 260.159C594.458 260.159 595.263 260.377 595.85 260.812C596.441 261.248 596.807 261.837 596.947 262.58ZM603.188 260.273V261.864H598.171V260.273H603.188ZM599.41 258.182H601.467V266.375C601.467 266.652 601.508 266.864 601.592 267.011C601.679 267.155 601.792 267.254 601.933 267.307C602.073 267.36 602.228 267.386 602.398 267.386C602.527 267.386 602.645 267.377 602.751 267.358C602.861 267.339 602.944 267.322 603.001 267.307L603.347 268.915C603.237 268.953 603.08 268.994 602.876 269.04C602.675 269.085 602.429 269.112 602.137 269.119C601.622 269.134 601.158 269.057 600.745 268.886C600.332 268.712 600.004 268.443 599.762 268.08C599.523 267.716 599.406 267.261 599.41 266.716V258.182ZM604.908 269V260.273H606.965V269H604.908ZM605.942 259.034C605.617 259.034 605.336 258.926 605.102 258.71C604.867 258.491 604.749 258.227 604.749 257.92C604.749 257.61 604.867 257.347 605.102 257.131C605.336 256.911 605.617 256.801 605.942 256.801C606.272 256.801 606.552 256.911 606.783 257.131C607.018 257.347 607.136 257.61 607.136 257.92C607.136 258.227 607.018 258.491 606.783 258.71C606.552 258.926 606.272 259.034 605.942 259.034ZM611.137 263.886V269H609.08V260.273H611.046V261.756H611.148C611.349 261.267 611.669 260.879 612.109 260.591C612.552 260.303 613.099 260.159 613.751 260.159C614.353 260.159 614.878 260.288 615.325 260.545C615.775 260.803 616.124 261.176 616.37 261.665C616.62 262.153 616.743 262.746 616.739 263.443V269H614.683V263.761C614.683 263.178 614.531 262.722 614.228 262.392C613.929 262.062 613.514 261.898 612.984 261.898C612.624 261.898 612.304 261.977 612.023 262.136C611.747 262.292 611.529 262.517 611.37 262.812C611.215 263.108 611.137 263.466 611.137 263.886ZM622.626 272.455C621.887 272.455 621.253 272.354 620.722 272.153C620.192 271.956 619.766 271.691 619.444 271.358C619.122 271.025 618.898 270.655 618.773 270.25L620.626 269.801C620.709 269.972 620.83 270.14 620.989 270.307C621.148 270.477 621.362 270.617 621.631 270.727C621.904 270.841 622.247 270.898 622.66 270.898C623.243 270.898 623.726 270.756 624.109 270.472C624.491 270.191 624.683 269.729 624.683 269.085V267.432H624.58C624.474 267.644 624.319 267.862 624.114 268.085C623.914 268.309 623.647 268.496 623.313 268.648C622.984 268.799 622.569 268.875 622.069 268.875C621.398 268.875 620.79 268.718 620.245 268.403C619.703 268.085 619.272 267.612 618.95 266.983C618.631 266.35 618.472 265.559 618.472 264.608C618.472 263.65 618.631 262.841 618.95 262.182C619.272 261.519 619.705 261.017 620.251 260.676C620.796 260.331 621.404 260.159 622.075 260.159C622.586 260.159 623.006 260.246 623.336 260.42C623.669 260.591 623.934 260.797 624.131 261.04C624.328 261.278 624.478 261.504 624.58 261.716H624.694V260.273H626.722V269.142C626.722 269.888 626.544 270.506 626.188 270.994C625.832 271.483 625.345 271.848 624.728 272.091C624.111 272.333 623.41 272.455 622.626 272.455ZM622.643 267.261C623.078 267.261 623.45 267.155 623.756 266.943C624.063 266.731 624.296 266.426 624.455 266.028C624.614 265.631 624.694 265.153 624.694 264.597C624.694 264.047 624.614 263.566 624.455 263.153C624.3 262.741 624.069 262.42 623.762 262.193C623.459 261.962 623.086 261.847 622.643 261.847C622.184 261.847 621.802 261.966 621.495 262.205C621.188 262.443 620.957 262.771 620.802 263.188C620.647 263.6 620.569 264.07 620.569 264.597C620.569 265.131 620.647 265.598 620.802 266C620.961 266.398 621.194 266.708 621.501 266.932C621.811 267.152 622.192 267.261 622.643 267.261ZM636.833 269H632.89V257.364H636.913C638.068 257.364 639.06 257.597 639.89 258.062C640.723 258.525 641.363 259.189 641.81 260.057C642.257 260.924 642.481 261.962 642.481 263.17C642.481 264.383 642.255 265.424 641.805 266.295C641.358 267.167 640.712 267.835 639.867 268.301C639.026 268.767 638.015 269 636.833 269ZM634.998 267.176H636.731C637.541 267.176 638.218 267.028 638.759 266.733C639.301 266.434 639.708 265.989 639.981 265.398C640.254 264.803 640.39 264.061 640.39 263.17C640.39 262.28 640.254 261.542 639.981 260.955C639.708 260.364 639.305 259.922 638.771 259.631C638.24 259.335 637.581 259.188 636.793 259.188H634.998V267.176ZM646.904 269.176C646.351 269.176 645.853 269.078 645.41 268.881C644.97 268.68 644.622 268.384 644.364 267.994C644.111 267.604 643.984 267.123 643.984 266.551C643.984 266.059 644.075 265.652 644.256 265.33C644.438 265.008 644.686 264.75 645.001 264.557C645.315 264.364 645.669 264.218 646.063 264.119C646.461 264.017 646.872 263.943 647.296 263.898C647.808 263.845 648.222 263.797 648.54 263.756C648.859 263.71 649.09 263.642 649.234 263.551C649.381 263.456 649.455 263.311 649.455 263.114V263.08C649.455 262.652 649.328 262.32 649.075 262.085C648.821 261.85 648.455 261.733 647.978 261.733C647.474 261.733 647.075 261.843 646.779 262.062C646.487 262.282 646.29 262.542 646.188 262.841L644.268 262.568C644.419 262.038 644.669 261.595 645.018 261.239C645.366 260.879 645.792 260.61 646.296 260.432C646.8 260.25 647.357 260.159 647.967 260.159C648.387 260.159 648.806 260.208 649.222 260.307C649.639 260.405 650.02 260.568 650.364 260.795C650.709 261.019 650.986 261.324 651.194 261.71C651.406 262.097 651.512 262.58 651.512 263.159V269H649.535V267.801H649.467C649.342 268.044 649.165 268.271 648.938 268.483C648.715 268.691 648.433 268.86 648.092 268.989C647.754 269.114 647.359 269.176 646.904 269.176ZM647.438 267.665C647.851 267.665 648.209 267.583 648.512 267.42C648.815 267.254 649.048 267.034 649.211 266.761C649.378 266.489 649.461 266.191 649.461 265.869V264.841C649.397 264.894 649.287 264.943 649.131 264.989C648.98 265.034 648.809 265.074 648.62 265.108C648.431 265.142 648.243 265.172 648.058 265.199C647.872 265.225 647.711 265.248 647.575 265.267C647.268 265.309 646.993 265.377 646.751 265.472C646.508 265.566 646.317 265.699 646.177 265.869C646.037 266.036 645.967 266.252 645.967 266.517C645.967 266.896 646.105 267.182 646.381 267.375C646.658 267.568 647.01 267.665 647.438 267.665ZM657.938 260.273V261.864H652.921V260.273H657.938ZM654.16 258.182H656.217V266.375C656.217 266.652 656.258 266.864 656.342 267.011C656.429 267.155 656.542 267.254 656.683 267.307C656.823 267.36 656.978 267.386 657.148 267.386C657.277 267.386 657.395 267.377 657.501 267.358C657.611 267.339 657.694 267.322 657.751 267.307L658.097 268.915C657.987 268.953 657.83 268.994 657.626 269.04C657.425 269.085 657.179 269.112 656.887 269.119C656.372 269.134 655.908 269.057 655.495 268.886C655.082 268.712 654.754 268.443 654.512 268.08C654.273 267.716 654.156 267.261 654.16 266.716V258.182ZM662.17 269.176C661.617 269.176 661.119 269.078 660.675 268.881C660.236 268.68 659.888 268.384 659.63 267.994C659.376 267.604 659.249 267.123 659.249 266.551C659.249 266.059 659.34 265.652 659.522 265.33C659.704 265.008 659.952 264.75 660.266 264.557C660.581 264.364 660.935 264.218 661.329 264.119C661.727 264.017 662.138 263.943 662.562 263.898C663.073 263.845 663.488 263.797 663.806 263.756C664.124 263.71 664.355 263.642 664.499 263.551C664.647 263.456 664.721 263.311 664.721 263.114V263.08C664.721 262.652 664.594 262.32 664.34 262.085C664.086 261.85 663.721 261.733 663.244 261.733C662.74 261.733 662.34 261.843 662.045 262.062C661.753 262.282 661.556 262.542 661.454 262.841L659.533 262.568C659.685 262.038 659.935 261.595 660.283 261.239C660.632 260.879 661.058 260.61 661.562 260.432C662.066 260.25 662.622 260.159 663.232 260.159C663.653 260.159 664.071 260.208 664.488 260.307C664.905 260.405 665.285 260.568 665.63 260.795C665.975 261.019 666.251 261.324 666.46 261.71C666.672 262.097 666.778 262.58 666.778 263.159V269H664.8V267.801H664.732C664.607 268.044 664.431 268.271 664.204 268.483C663.98 268.691 663.698 268.86 663.357 268.989C663.02 269.114 662.624 269.176 662.17 269.176ZM662.704 267.665C663.117 267.665 663.475 267.583 663.778 267.42C664.081 267.254 664.314 267.034 664.477 266.761C664.643 266.489 664.727 266.191 664.727 265.869V264.841C664.662 264.894 664.552 264.943 664.397 264.989C664.246 265.034 664.075 265.074 663.886 265.108C663.696 265.142 663.509 265.172 663.323 265.199C663.138 265.225 662.977 265.248 662.84 265.267C662.533 265.309 662.259 265.377 662.016 265.472C661.774 265.566 661.583 265.699 661.442 265.869C661.302 266.036 661.232 266.252 661.232 266.517C661.232 266.896 661.371 267.182 661.647 267.375C661.924 267.568 662.276 267.665 662.704 267.665Z" fill="white"/>
</svg>
